<?xml version="1.0" encoding="UTF-8" standalone="no"?>
<!-- Created with Inkscape (http://www.inkscape.org/) -->

<svg
   width="54.321426mm"
   height="54.32143mm"
   viewBox="0 0 54.321426 54.32143"
   version="1.1"
   id="svg1"
   xml:space="preserve"
   xmlns="http://www.w3.org/2000/svg"
   xmlns:svg="http://www.w3.org/2000/svg"><defs
     id="defs1" /><g
     id="layer15"
     transform="translate(-317.75033,17.907265)"><g
       id="layer13"
       style="display:inline"><circle
         style="display:inline;fill:#151d28;fill-opacity:1;stroke:#151d28;stroke-width:3.677;stroke-dasharray:none;stroke-opacity:1;paint-order:stroke fill markers"
         id="path9-5-7"
         cx="344.91104"
         cy="9.2534494"
         r="25.322214" /><path
         style="color:#000000;display:inline;fill:#75a743;stroke-width:0.949426;-inkscape-stroke:none;paint-order:stroke fill markers"
         d="m 324.46033,-3.52868 1.82467,1.178493 c 0.12802,-0.205259 0.25697,-0.410204 0.39152,-0.610835 l -1.82466,-1.178492 c -0.13443,0.200772 -0.26302,0.405877 -0.39153,0.610834 z"
         id="path109-5" /><path
         style="color:#000000;display:inline;fill:#75a743;stroke-width:0.949426;-inkscape-stroke:none;paint-order:stroke fill markers"
         d="m 320.80663,10.098559 2.18182,-0.10892 c -0.008,-0.24461 -0.0186,-0.488374 -0.0186,-0.734963 0,-4.264318 1.21594,-8.239256 3.31518,-11.604863 l -1.82466,-1.178493 c -2.32517,3.70859603 -3.6753,8.089118 -3.6753,12.783356 0,0.283027 0.0119,0.563194 0.0216,0.843883 z"
         id="path108-9" /><path
         style="color:#000000;display:inline;fill:#75a743;stroke-width:0.949426;-inkscape-stroke:none;paint-order:stroke fill markers"
         d="m 320.84153,10.823709 2.18183,-0.108919 c -0.0158,-0.240671 -0.0269,-0.482407 -0.0349,-0.725151 l -2.18182,0.10892 c 0.009,0.242639 0.0193,0.484371 0.0349,0.72515 z"
         id="path107-6" /><path
         style="color:#000000;display:inline;fill:#75a743;stroke-width:0.949426;-inkscape-stroke:none;paint-order:stroke fill markers"
         d="m 325.97254,24.179631 1.68382,-1.369348 c -2.65193,-3.372822 -4.3344,-7.541996 -4.633,-12.095493 l -2.18183,0.108919 c 0.32394,5.025497 2.19054,9.632062 5.13101,13.355922 z"
         id="path106-2" /><path
         style="color:#000000;display:inline;fill:#75a743;stroke-width:0.949426;-inkscape-stroke:none;paint-order:stroke fill markers"
         d="m 326.42783,24.743854 1.68482,-1.368857 c -0.15571,-0.185146 -0.30664,-0.374408 -0.45629,-0.564714 l -1.68382,1.369348 c 0.14984,0.189769 0.29993,0.379116 0.45529,0.564223 z"
         id="path105-1" /><path
         style="color:#000000;display:inline;fill:#75a743;stroke-width:0.949426;-inkscape-stroke:none;paint-order:stroke fill markers"
         d="m 338.31776,32.457535 0.56471,-2.104312 c -4.2634,-1.213614 -7.99426,-3.678235 -10.76982,-6.978226 l -1.68482,1.368857 c 3.06278,3.649235 7.18489,6.376339 11.88993,7.713681 z"
         id="path104-7" /><path
         style="color:#000000;display:inline;fill:#75a743;stroke-width:0.949426;-inkscape-stroke:none;paint-order:stroke fill markers"
         d="m 339.01789,32.649861 0.5647,-2.106274 c -0.2354,-0.05861 -0.4678,-0.124232 -0.70012,-0.190364 l -0.56471,2.104312 c 0.23262,0.06612 0.4647,0.133077 0.70013,0.192326 z"
         id="path103-8" /><path
         style="color:#000000;display:inline;fill:#75a743;stroke-width:0.949426;-inkscape-stroke:none;paint-order:stroke fill markers"
         d="m 353.17893,31.922258 -0.77666,-2.035133 c -2.33681,0.846931 -4.85834,1.309982 -7.48996,1.309982 -1.83893,0 -3.6235,-0.228722 -5.32972,-0.65352 l -0.5647,2.106274 c 1.88707,0.474924 3.86123,0.729567 5.89442,0.729567 2.9033,0 5.68723,-0.514631 8.26662,-1.45717 z"
         id="path102-5" /><path
         style="color:#000000;display:inline;fill:#75a743;stroke-width:0.949426;-inkscape-stroke:none;paint-order:stroke fill markers"
         d="m 353.85403,31.657317 -0.77617,-2.032679 c -0.22406,0.08975 -0.44794,0.179978 -0.67559,0.262487 l 0.77666,2.035133 c 0.22754,-0.08316 0.45081,-0.175189 0.6751,-0.264941 z"
         id="path101-7" /><path
         style="color:#000000;display:inline;fill:#75a743;stroke-width:0.949426;-inkscape-stroke:none;paint-order:stroke fill markers"
         d="m 364.9717,22.647885 -1.82318,-1.178002 c -2.44138,3.640522 -5.94653,6.502768 -10.07066,8.154755 l 0.77617,2.032679 c 4.55243,-1.821681 8.4244,-4.986713 11.11767,-9.009432 z"
         id="path100-4" /><path
         id="circle16-1"
         style="fill:none;stroke:#ffffff;stroke-width:0.7;stroke-dasharray:none;paint-order:stroke fill markers"
         d="m 339.67694,28.78735 -1.04506,3.900224 m -9.19622,-10.856832 -3.08988,2.511228 m -1.51572,-14.08231 -4.00946,0.200911 m 7.2029,-12.119009 -3.37184,-2.178714 m 25.49346,-6.443286 1.04506,-3.900224 m 9.19622,10.856832 3.08988,-2.511228 m 1.51573,14.082302 4.00945,-0.200904 m -7.2029,12.118998 3.37184,2.178725 m -13.14595,5.539327 1.4203,3.719726 m -13.76781,-2.815766 -1.04506,3.900224" /><path
         d="m 347.58832,-5.6683727 h 1.45728 v 0.3513995 h -1.95957 v -0.3513995 q 0.23771,-0.2459796 0.64699,-0.6593907 0.41134,-0.4154781 0.51676,-0.5353674 0.20051,-0.225309 0.27905,-0.3803382 0.0806,-0.1570962 0.0806,-0.3079913 0,-0.2459796 -0.17363,-0.4010087 -0.17157,-0.1550292 -0.44855,-0.1550292 -0.19638,0 -0.41548,0.068213 -0.21704,0.068213 -0.46509,0.2067056 V -8.254259 q 0.25218,-0.1012857 0.47129,-0.1529621 0.21911,-0.051676 0.40101,-0.051676 0.47955,0 0.76481,0.2397785 0.28525,0.2397784 0.28525,0.6407872 0,0.1901691 -0.0724,0.3617347 -0.0703,0.1694986 -0.25838,0.4010088 -0.0517,0.059945 -0.32866,0.3472653 -0.27699,0.2852537 -0.78135,0.7999505 z m 3.22668,-2.4597961 q -0.32246,0 -0.48576,0.3183266 -0.16123,0.3162595 -0.16123,0.9529126 0,0.6345861 0.16123,0.9529126 0.1633,0.3162595 0.48576,0.3162595 0.32452,0 0.48576,-0.3162595 0.16329,-0.3183265 0.16329,-0.9529126 0,-0.6366531 -0.16329,-0.9529126 -0.16124,-0.3183266 -0.48576,-0.3183266 z m 0,-0.3307289 q 0.51883,0 0.79168,0.4113441 0.27492,0.409277 0.27492,1.190624 0,0.7792799 -0.27492,1.190624 -0.27285,0.409277 -0.79168,0.409277 -0.51883,0 -0.79375,-0.409277 -0.27285,-0.4113441 -0.27285,-1.190624 0,-0.781347 0.27285,-1.190624 0.27492,-0.4113441 0.79375,-0.4113441 z"
         id="text23-8"
         style="font-size:4.23333px;font-family:'DejaVu Sans';-inkscape-font-specification:'DejaVu Sans';fill:#ffffff;stroke-width:0.7;paint-order:stroke fill markers"
         aria-label="20" /><path
         d="m 355.65635,-1.230358 q 0.29973,0.064079 0.46716,0.26665021 0.1695,0.20257144 0.1695,0.50022744 0,0.45681928 -0.3142,0.706933 -0.31419,0.25011373 -0.89297,0.25011373 -0.1943,0 -0.401,-0.0392741 -0.20464,-0.037207 -0.42375,-0.11368806 v -0.40307583 q 0.17363,0.10128572 0.38034,0.15296211 0.2067,0.05167639 0.43201,0.05167639 0.39274,0 0.59738,-0.15502917 0.20671,-0.15502916 0.20671,-0.45061811 0,-0.27285133 -0.19224,-0.42581344 -0.19017,-0.15502917 -0.53123,-0.15502917 h -0.35967 v -0.3431312 h 0.3762 q 0.308,0 0.47129,-0.1219563 0.1633,-0.1240233 0.1633,-0.3555335 0,-0.2377114 -0.1695,-0.3638018 -0.16743,-0.1281574 -0.48162,-0.1281574 -0.17157,0 -0.36794,0.037207 -0.19637,0.037207 -0.43201,0.1157551 v -0.37207 q 0.23771,-0.066146 0.44441,-0.099219 0.20878,-0.033073 0.39274,-0.033073 0.47543,0 0.75241,0.2170409 0.27699,0.2149737 0.27699,0.5829096 0,0.2563149 -0.14676,0.4340817 -0.14676,0.1756997 -0.41755,0.2439129 z m 2.32131,-1.1472158 q -0.32246,0 -0.48576,0.3183266 -0.16123,0.3162595 -0.16123,0.9529126 0,0.63458603 0.16123,0.95291259 0.1633,0.3162595 0.48576,0.3162595 0.32452,0 0.48575,-0.3162595 0.1633,-0.31832656 0.1633,-0.95291259 0,-0.6366531 -0.1633,-0.9529126 -0.16123,-0.3183266 -0.48575,-0.3183266 z m 0,-0.3307289 q 0.51883,0 0.79168,0.4113441 0.27492,0.409277 0.27492,1.190624 0,0.77927992 -0.27492,1.19062398 -0.27285,0.409277 -0.79168,0.409277 -0.51884,0 -0.79375,-0.409277 -0.27285,-0.41134406 -0.27285,-1.19062398 0,-0.781347 0.27285,-1.190624 0.27491,-0.4113441 0.79375,-0.4113441 z"
         id="text24-9"
         style="font-size:4.23333px;font-family:'DejaVu Sans';-inkscape-font-specification:'DejaVu Sans';fill:#ffffff;stroke-width:0.7;paint-order:stroke fill markers"
         aria-label="30" /><path
         d="m 359.67223,7.2615755 -1.0542,1.6474433 h 1.0542 z m -0.10956,-0.3638018 h 0.52504 v 2.0112451 h 0.44028 v 0.3472653 h -0.44028 v 0.7276036 h -0.41548 V 9.2562841 h -1.3932 V 8.8532083 Z m 2.54868,0.2749184 q -0.32246,0 -0.48575,0.3183266 -0.16124,0.3162595 -0.16124,0.9529126 0,0.634586 0.16124,0.9529126 0.16329,0.3162595 0.48575,0.3162595 0.32453,0 0.48576,-0.3162595 0.1633,-0.3183266 0.1633,-0.9529126 0,-0.6366531 -0.1633,-0.9529126 -0.16123,-0.3183266 -0.48576,-0.3183266 z m 0,-0.3307289 q 0.51883,0 0.79169,0.4113441 0.27491,0.409277 0.27491,1.190624 0,0.7792799 -0.27491,1.190624 -0.27286,0.4092767 -0.79169,0.4092767 -0.51883,0 -0.79375,-0.4092767 -0.27285,-0.4113441 -0.27285,-1.190624 0,-0.781347 0.27285,-1.190624 0.27492,-0.4113441 0.79375,-0.4113441 z"
         id="text25-5"
         style="font-size:4.23333px;font-family:'DejaVu Sans';-inkscape-font-specification:'DejaVu Sans';fill:#ffffff;stroke-width:0.7;paint-order:stroke fill markers"
         aria-label="40" /><path
         d="m 356.16181,16.653102 h 1.63917 v 0.351399 h -1.25677 v 0.756543 q 0.0909,-0.03101 0.1819,-0.04548 0.091,-0.01654 0.1819,-0.01654 0.51677,0 0.81856,0.283187 0.30179,0.283186 0.30179,0.766877 0,0.498161 -0.31006,0.775146 -0.31006,0.274918 -0.87437,0.274918 -0.1943,0 -0.39687,-0.03307 -0.2005,-0.03307 -0.41548,-0.09922 V 19.24725 q 0.18604,0.101285 0.38447,0.150895 0.19844,0.04961 0.41962,0.04961 0.3576,0 0.56637,-0.188102 0.20877,-0.188102 0.20877,-0.510563 0,-0.32246 -0.20877,-0.510562 -0.20877,-0.188103 -0.56637,-0.188103 -0.16744,0 -0.33487,0.03721 -0.16536,0.03721 -0.33899,0.115756 z m 3.5822,0.274918 q -0.32246,0 -0.48575,0.318327 -0.16124,0.316259 -0.16124,0.952912 0,0.634587 0.16124,0.952913 0.16329,0.31626 0.48575,0.31626 0.32453,0 0.48576,-0.31626 0.1633,-0.318326 0.1633,-0.952913 0,-0.636653 -0.1633,-0.952912 -0.16123,-0.318327 -0.48576,-0.318327 z m 0,-0.330729 q 0.51883,0 0.79169,0.411344 0.27491,0.409277 0.27491,1.190624 0,0.77928 -0.27491,1.190624 -0.27286,0.409277 -0.79169,0.409277 -0.51883,0 -0.79375,-0.409277 -0.27285,-0.411344 -0.27285,-1.190624 0,-0.781347 0.27285,-1.190624 0.27492,-0.411344 0.79375,-0.411344 z"
         id="text26-8"
         style="font-size:4.23333px;font-family:'DejaVu Sans';-inkscape-font-specification:'DejaVu Sans';fill:#ffffff;stroke-width:0.7;paint-order:stroke fill markers"
         aria-label="50" /><path
         d="m 349.47451,24.480612 q -0.28112,0 -0.44649,0.192237 -0.16329,0.192236 -0.16329,0.527099 0,0.332796 0.16329,0.527099 0.16537,0.192236 0.44649,0.192236 0.28112,0 0.44442,-0.192236 0.16536,-0.194303 0.16536,-0.527099 0,-0.334863 -0.16536,-0.527099 -0.1633,-0.192237 -0.44442,-0.192237 z m 0.82889,-1.308446 v 0.380338 q -0.1571,-0.07441 -0.31833,-0.113688 -0.15916,-0.03927 -0.31626,-0.03927 -0.41341,0 -0.63252,0.279053 -0.21704,0.279052 -0.24804,0.843358 0.12195,-0.179833 0.30592,-0.274918 0.18397,-0.09715 0.40514,-0.09715 0.46509,0 0.73381,0.283187 0.27078,0.28112 0.27078,0.766878 0,0.475422 -0.28112,0.762743 -0.28112,0.287321 -0.74827,0.287321 -0.53537,0 -0.81856,-0.409277 -0.28318,-0.411344 -0.28318,-1.190624 0,-0.731738 0.34726,-1.165819 0.34727,-0.436149 0.93225,-0.436149 0.15709,0 0.31625,0.03101 0.16124,0.03101 0.33487,0.09302 z m 1.81281,0.206706 q -0.32247,0 -0.48576,0.318326 -0.16123,0.31626 -0.16123,0.952913 0,0.634586 0.16123,0.952913 0.16329,0.316259 0.48576,0.316259 0.32452,0 0.48575,-0.316259 0.1633,-0.318327 0.1633,-0.952913 0,-0.636653 -0.1633,-0.952913 -0.16123,-0.318326 -0.48575,-0.318326 z m 0,-0.330729 q 0.51883,0 0.79168,0.411344 0.27492,0.409277 0.27492,1.190624 0,0.77928 -0.27492,1.190624 -0.27285,0.409277 -0.79168,0.409277 -0.51884,0 -0.79375,-0.409277 -0.27286,-0.411344 -0.27286,-1.190624 0,-0.781347 0.27286,-1.190624 0.27491,-0.411344 0.79375,-0.411344 z"
         id="text27-3"
         style="font-size:4.23333px;font-family:'DejaVu Sans';-inkscape-font-specification:'DejaVu Sans';fill:#ffffff;stroke-width:0.7;paint-order:stroke fill markers"
         aria-label="60" /><path
         d="m 338.1872,23.680018 h 1.98437 v 0.177767 l -1.12034,2.908347 h -0.43615 l 1.0542,-2.734714 h -1.48208 z m 3.69176,0.274919 q -0.32246,0 -0.48576,0.318326 -0.16123,0.31626 -0.16123,0.952913 0,0.634586 0.16123,0.952913 0.1633,0.316259 0.48576,0.316259 0.32453,0 0.48576,-0.316259 0.1633,-0.318327 0.1633,-0.952913 0,-0.636653 -0.1633,-0.952913 -0.16123,-0.318326 -0.48576,-0.318326 z m 0,-0.330729 q 0.51883,0 0.79168,0.411344 0.27492,0.409277 0.27492,1.190624 0,0.77928 -0.27492,1.190624 -0.27285,0.409277 -0.79168,0.409277 -0.51883,0 -0.79375,-0.409277 -0.27285,-0.411344 -0.27285,-1.190624 0,-0.781347 0.27285,-1.190624 0.27492,-0.411344 0.79375,-0.411344 z"
         id="text28-8"
         style="font-size:4.23333px;font-family:'DejaVu Sans';-inkscape-font-specification:'DejaVu Sans';fill:#ffffff;stroke-width:0.7;paint-order:stroke fill markers"
         aria-label="70" /><path
         d="m 330.61668,19.003204 q -0.29766,0 -0.46922,0.159163 -0.1695,0.159163 -0.1695,0.438216 0,0.279052 0.1695,0.438216 0.17156,0.159163 0.46922,0.159163 0.29766,0 0.46922,-0.159163 0.17157,-0.161231 0.17157,-0.438216 0,-0.279053 -0.17157,-0.438216 -0.1695,-0.159163 -0.46922,-0.159163 z m -0.41755,-0.177767 q -0.26871,-0.06615 -0.41961,-0.250114 -0.14883,-0.183968 -0.14883,-0.448551 0,-0.370003 0.26252,-0.584976 0.26458,-0.214974 0.72347,-0.214974 0.46095,0 0.72347,0.214974 0.26252,0.214973 0.26252,0.584976 0,0.264583 -0.1509,0.448551 -0.14883,0.183968 -0.41548,0.250114 0.30179,0.07028 0.46922,0.274918 0.1695,0.204639 0.1695,0.500228 0,0.448551 -0.27492,0.688329 -0.27285,0.239779 -0.78341,0.239779 -0.51056,0 -0.78548,-0.239779 -0.27285,-0.239778 -0.27285,-0.688329 0,-0.295589 0.1695,-0.500228 0.16949,-0.204638 0.47128,-0.274918 z m -0.15296,-0.659391 q 0,0.239779 0.14883,0.374137 0.1509,0.134359 0.42168,0.134359 0.26872,0 0.41961,-0.134359 0.15296,-0.134358 0.15296,-0.374137 0,-0.239778 -0.15296,-0.374137 -0.15089,-0.134358 -0.41961,-0.134358 -0.27078,0 -0.42168,0.134358 -0.14883,0.134359 -0.14883,0.374137 z m 3.26388,-0.508495 q -0.32246,0 -0.48575,0.318326 -0.16124,0.31626 -0.16124,0.952913 0,0.634586 0.16124,0.952912 0.16329,0.31626 0.48575,0.31626 0.32453,0 0.48576,-0.31626 0.1633,-0.318326 0.1633,-0.952912 0,-0.636653 -0.1633,-0.952913 -0.16123,-0.318326 -0.48576,-0.318326 z m 0,-0.330729 q 0.51883,0 0.79169,0.411344 0.27491,0.409277 0.27491,1.190624 0,0.77928 -0.27491,1.190624 -0.27286,0.409277 -0.79169,0.409277 -0.51883,0 -0.79375,-0.409277 -0.27285,-0.411344 -0.27285,-1.190624 0,-0.781347 0.27285,-1.190624 0.27492,-0.411344 0.79375,-0.411344 z"
         id="text29-6"
         style="font-size:4.23333px;font-family:'DejaVu Sans';-inkscape-font-specification:'DejaVu Sans';fill:#ffffff;stroke-width:0.7;paint-order:stroke fill markers"
         aria-label="80" /><path
         d="M 326.35431,11.482118 V 11.10178 q 0.15709,0.07441 0.31833,0.113688 0.16123,0.03927 0.31625,0.03927 0.41342,0 0.63046,-0.276985 0.2191,-0.279053 0.25011,-0.845426 -0.11989,0.177767 -0.30386,0.272851 -0.18396,0.09508 -0.40721,0.09508 -0.46302,0 -0.7338,-0.279053 -0.26872,-0.2811192 -0.26872,-0.7668773 0,-0.4754228 0.28112,-0.7627435 0.28112,-0.2873207 0.74828,-0.2873207 0.53536,0 0.81648,0.4113441 0.28319,0.409277 0.28319,1.1906244 0,0.72967 -0.34727,1.165819 -0.3452,0.434082 -0.93017,0.434082 -0.1571,0 -0.31833,-0.03101 -0.16123,-0.03101 -0.33486,-0.09302 z m 0.83096,-1.308446 q 0.28111,0 0.44441,-0.1922361 0.16537,-0.1922362 0.16537,-0.5270992 0,-0.3327959 -0.16537,-0.5250321 -0.1633,-0.1943032 -0.44441,-0.1943032 -0.28112,0 -0.44649,0.1943032 -0.1633,0.1922362 -0.1633,0.5250321 0,0.334863 0.1633,0.5270992 0.16537,0.1922361 0.44649,0.1922361 z m 2.74298,-1.4386706 q -0.32246,0 -0.48576,0.3183265 -0.16123,0.3162595 -0.16123,0.9529131 0,0.634586 0.16123,0.952912 0.1633,0.31626 0.48576,0.31626 0.32453,0 0.48576,-0.31626 0.16329,-0.318326 0.16329,-0.952912 0,-0.6366536 -0.16329,-0.9529131 -0.16123,-0.3183265 -0.48576,-0.3183265 z m 0,-0.3307289 q 0.51883,0 0.79168,0.4113441 0.27492,0.409277 0.27492,1.1906244 0,0.779279 -0.27492,1.190624 -0.27285,0.409277 -0.79168,0.409277 -0.51883,0 -0.79375,-0.409277 -0.27285,-0.411345 -0.27285,-1.190624 0,-0.7813474 0.27285,-1.1906244 0.27492,-0.4113441 0.79375,-0.4113441 z"
         id="text30-3"
         style="font-size:4.23333px;font-family:'DejaVu Sans';-inkscape-font-specification:'DejaVu Sans';fill:#ffffff;stroke-width:0.7;paint-order:stroke fill markers"
         aria-label="90" /><path
         d="m 329.94224,1.0475048 h 0.68213 v -2.3543763 l -0.74208,0.148828 v -0.3803382 l 0.73794,-0.148828 h 0.41755 v 2.7347145 h 0.68213 v 0.3513994 h -1.77767 z m 3.51399,-2.4597961 q -0.32246,0 -0.48576,0.3183265 -0.16123,0.31625951 -0.16123,0.95291262 0,0.63458605 0.16123,0.95291261 0.1633,0.31625947 0.48576,0.31625947 0.32453,0 0.48576,-0.31625947 0.1633,-0.31832656 0.1633,-0.95291261 0,-0.63665311 -0.1633,-0.95291262 -0.16123,-0.3183265 -0.48576,-0.3183265 z m 0,-0.3307289 q 0.51883,0 0.79168,0.411344 0.27492,0.40927702 0.27492,1.19062402 0,0.77927994 -0.27492,1.19062398 -0.27285,0.409277 -0.79168,0.409277 -0.51883,0 -0.79375,-0.409277 -0.27285,-0.41134404 -0.27285,-1.19062398 0,-0.781347 0.27285,-1.19062402 0.27492,-0.411344 0.79375,-0.411344 z m 2.69338,0.3307289 q -0.32246,0 -0.48576,0.3183265 -0.16123,0.31625951 -0.16123,0.95291262 0,0.63458605 0.16123,0.95291261 0.1633,0.31625947 0.48576,0.31625947 0.32452,0 0.48575,-0.31625947 0.1633,-0.31832656 0.1633,-0.95291261 0,-0.63665311 -0.1633,-0.95291262 -0.16123,-0.3183265 -0.48575,-0.3183265 z m 0,-0.3307289 q 0.51883,0 0.79168,0.411344 0.27492,0.40927702 0.27492,1.19062402 0,0.77927994 -0.27492,1.19062398 -0.27285,0.409277 -0.79168,0.409277 -0.51884,0 -0.79375,-0.409277 -0.27285,-0.41134404 -0.27285,-1.19062398 0,-0.781347 0.27285,-1.19062402 0.27491,-0.411344 0.79375,-0.411344 z"
         id="text31-3"
         style="font-size:4.23333px;font-family:'DejaVu Sans';-inkscape-font-specification:'DejaVu Sans';fill:#ffffff;stroke-width:0.7;paint-order:stroke fill markers"
         aria-label="100" /><path
         d="m 339.69973,2.5805976 h 0.31316 v 0.9782349 l 1.0387,-0.9782349 h 0.40307 l -1.14876,1.0790039 1.23093,1.2355835 h -0.41238 L 340.01289,3.7805244 V 4.895185 h -0.31316 z m 2.08204,0 h 0.42168 l 1.0263,1.9363159 V 2.5805976 h 0.30386 V 4.895185 h -0.42168 l -1.0263,-1.9363159 V 4.895185 h -0.30386 z m 3.31453,0.2123902 q -0.34106,0 -0.5426,0.254248 -0.19999,0.254248 -0.19999,0.6929809 0,0.4371827 0.19999,0.6914307 0.20154,0.254248 0.5426,0.254248 0.34107,0 0.5395,-0.254248 0.19999,-0.254248 0.19999,-0.6914307 0,-0.4387329 -0.19999,-0.6929809 -0.19843,-0.254248 -0.5395,-0.254248 z m 0,-0.2542481 q 0.48679,0 0.77825,0.3271118 0.29145,0.3255615 0.29145,0.8743652 0,0.5472535 -0.29145,0.8743653 -0.29146,0.3255615 -0.77825,0.3255615 -0.48834,0 -0.78135,-0.3255615 -0.29145,-0.3255615 -0.29145,-0.8743653 0,-0.5488037 0.29145,-0.8743652 0.29301,-0.3271118 0.78135,-0.3271118 z m 1.23869,0.041858 h 1.95802 v 0.2635498 h -0.82166 V 4.895185 h -0.31471 V 2.8441474 h -0.82165 z m 3.64783,0.075964 v 0.3054077 q -0.17828,-0.085266 -0.33641,-0.127124 -0.15813,-0.041858 -0.30541,-0.041858 -0.25579,0 -0.39532,0.099219 -0.13798,0.099219 -0.13798,0.2821533 0,0.153479 0.0915,0.232544 0.093,0.077515 0.35037,0.1255737 l 0.18913,0.038757 q 0.35037,0.066663 0.51625,0.2356445 0.16743,0.1674317 0.16743,0.449585 0,0.3364136 -0.22634,0.5100464 -0.22479,0.1736328 -0.66043,0.1736328 -0.16433,0 -0.35036,-0.037207 -0.18449,-0.037207 -0.38292,-0.1100708 v -0.322461 q 0.19068,0.1069702 0.37362,0.1612305 0.18293,0.05426 0.35966,0.05426 0.2682,0 0.41393,-0.1054199 0.14573,-0.1054199 0.14573,-0.3007568 0,-0.1705322 -0.10542,-0.2666504 -0.10387,-0.096118 -0.34262,-0.1441772 l -0.19068,-0.037207 q -0.35037,-0.069763 -0.50695,-0.2185913 -0.15658,-0.1488281 -0.15658,-0.4139282 0,-0.306958 0.21549,-0.4836914 0.21705,-0.1767334 0.59687,-0.1767334 0.16278,0 0.33176,0.029456 0.16898,0.029455 0.34571,0.088367 z"
         id="text32-6"
         style="font-size:3.175px;font-family:'DejaVu Sans';-inkscape-font-specification:'DejaVu Sans';fill:#ffffff;stroke-width:0.7;paint-order:stroke fill markers"
         aria-label="KNOTS" /><circle
         style="display:inline;fill:#ffffff;fill-opacity:1;stroke:none;stroke-width:0.0796741;stroke-dasharray:none;stroke-opacity:1;paint-order:stroke fill markers"
         id="path14-2-4"
         cx="344.91104"
         cy="9.2534494"
         r="0.3073639" /></g></g></svg>
