<?xml version="1.0" encoding="UTF-8" standalone="no"?>
<!-- Created with Inkscape (http://www.inkscape.org/) -->

<svg
   width="54.320976mm"
   height="54.321426mm"
   viewBox="0 0 54.320976 54.321426"
   version="1.1"
   id="svg1"
   xml:space="preserve"
   xmlns="http://www.w3.org/2000/svg"
   xmlns:svg="http://www.w3.org/2000/svg"><defs
     id="defs1" /><g
     id="layer15"
     transform="translate(-569.82732,29.879248)"><g
       id="g209"
       style="display:inline"><ellipse
         style="display:inline;fill:#151d28;fill-opacity:1;stroke:#151d28;stroke-width:3.677;stroke-dasharray:none;stroke-opacity:1;paint-order:stroke fill markers"
         id="ellipse197"
         cx="596.98779"
         cy="-2.718534"
         rx="25.322001"
         ry="25.322214" /><circle
         style="display:inline;fill:#ffffff;fill-opacity:1;stroke:none;stroke-width:0.0796741;stroke-dasharray:none;stroke-opacity:1;paint-order:stroke fill markers"
         id="circle197"
         cx="596.98779"
         cy="-2.718534"
         r="0.3073639" /><path
         id="path197"
         style="display:inline;fill:none;stroke:#ffffff;stroke-width:0.7;stroke-dasharray:none;stroke-opacity:1;paint-order:stroke fill markers"
         d="m 351.48845,67.687401 h 4.03781 m -8.10674,11.692817 3.22538,2.33464 m -13.21017,5.108847 1.23179,3.82084 m -13.57031,-3.820839 -1.23178,3.820839 m -8.753,-11.264327 -3.22538,2.33464 M 311.0425,67.687401 h -4.03781 m 8.10674,-11.692817 -3.22538,-2.33464 m 13.21016,-5.108848 -1.23178,-3.820839 m 13.5703,3.82084 1.23179,-3.82084 m 8.753,11.264327 3.22538,-2.33464 m 0.84355,14.027457 h 4.03781"
         transform="rotate(90,499.32961,165.34559)" /><path
         d="m 596.9878,-21.561186 q -0.32246,0 -0.48575,0.318327 -0.16123,0.316259 -0.16123,0.952912 0,0.634586 0.16123,0.952913 0.16329,0.316259 0.48575,0.316259 0.32453,0 0.48576,-0.316259 0.1633,-0.318327 0.1633,-0.952913 0,-0.636653 -0.1633,-0.952912 -0.16123,-0.318327 -0.48576,-0.318327 z m 0,-0.330729 q 0.51883,0 0.79169,0.411344 0.27491,0.409277 0.27491,1.190624 0,0.77928 -0.27491,1.190624 -0.27286,0.409277 -0.79169,0.409277 -0.51883,0 -0.79375,-0.409277 -0.27285,-0.411344 -0.27285,-1.190624 0,-0.781347 0.27285,-1.190624 0.27492,-0.411344 0.79375,-0.411344 z"
         id="text197"
         style="font-size:4.23333px;font-family:'DejaVu Sans';-inkscape-font-specification:'DejaVu Sans';fill:#ffffff;stroke-width:0.7;paint-order:stroke fill markers"
         aria-label="0" /><path
         d="m 606.30213,-15.2732 h 0.68213 v -2.354376 l -0.74207,0.148828 v -0.380339 l 0.73794,-0.148828 h 0.41754 v 2.734715 h 0.68213 v 0.351399 h -1.77767 z"
         id="text198"
         style="font-size:4.23333px;font-family:'DejaVu Sans';-inkscape-font-specification:'DejaVu Sans';fill:#ffffff;stroke-width:0.7;paint-order:stroke fill markers"
         aria-label="1" /><path
         d="m 613.39451,-7.1234193 h 1.45727 v 0.3513994 h -1.95957 v -0.3513994 q 0.23771,-0.2459796 0.64699,-0.6593907 0.41134,-0.4154782 0.51676,-0.5353674 0.20051,-0.2253091 0.27906,-0.3803382 0.0806,-0.1570963 0.0806,-0.3079913 0,-0.2459796 -0.17363,-0.4010088 -0.17157,-0.1550292 -0.44855,-0.1550292 -0.19637,0 -0.41548,0.068213 -0.21704,0.068213 -0.46509,0.2067055 v -0.4216793 q 0.25218,-0.1012857 0.47129,-0.1529621 0.21911,-0.051676 0.40101,-0.051676 0.47956,0 0.76481,0.2397784 0.28525,0.2397785 0.28525,0.6407873 0,0.1901691 -0.0723,0.3617347 -0.0703,0.1694985 -0.25839,0.4010088 -0.0517,0.059945 -0.32866,0.3472653 -0.27698,0.2852537 -0.78134,0.7999505 z"
         id="text199"
         style="font-size:4.23333px;font-family:'DejaVu Sans';-inkscape-font-specification:'DejaVu Sans';fill:#ffffff;stroke-width:0.7;paint-order:stroke fill markers"
         aria-label="2" /><path
         d="m 614.25148,2.6561139 q 0.29972,0.064079 0.46715,0.2666502 0.1695,0.2025714 0.1695,0.5002274 0,0.4568193 -0.31419,0.706933 -0.3142,0.2501137 -0.89297,0.2501137 -0.1943,0 -0.40101,-0.039274 -0.20464,-0.037207 -0.42375,-0.1136881 V 3.8240003 q 0.17364,0.1012857 0.38034,0.1529621 0.20671,0.051676 0.43202,0.051676 0.39274,0 0.59737,-0.1550292 0.20671,-0.1550291 0.20671,-0.4506181 0,-0.2728513 -0.19224,-0.4258134 -0.19016,-0.1550292 -0.53123,-0.1550292 h -0.35967 V 2.4990177 h 0.37621 q 0.30799,0 0.47129,-0.1219563 0.16329,-0.1240233 0.16329,-0.3555335 0,-0.2377114 -0.16949,-0.3638018 -0.16744,-0.1281575 -0.48163,-0.1281575 -0.17156,0 -0.36793,0.037207 -0.19638,0.037207 -0.43202,0.1157551 v -0.37207 q 0.23771,-0.066146 0.44442,-0.099219 0.20877,-0.033073 0.39274,-0.033073 0.47542,0 0.75241,0.2170408 0.27698,0.2149738 0.27698,0.5829097 0,0.2563149 -0.14676,0.4340817 -0.14676,0.1756997 -0.41754,0.243913 z"
         id="text200"
         style="font-size:4.23333px;font-family:'DejaVu Sans';-inkscape-font-specification:'DejaVu Sans';fill:#ffffff;stroke-width:0.7;paint-order:stroke fill markers"
         aria-label="3" /><path
         d="m 607.53038,9.5428875 -1.0542,1.6474435 h 1.0542 z m -0.10955,-0.3638018 h 0.52503 v 2.0112453 h 0.44028 v 0.347265 h -0.44028 V 12.2652 h -0.41548 v -0.727604 h -1.39319 V 11.13452 Z"
         id="text201"
         style="font-size:4.23333px;font-family:'DejaVu Sans';-inkscape-font-specification:'DejaVu Sans';fill:#ffffff;stroke-width:0.7;paint-order:stroke fill markers"
         aria-label="4" /><path
         d="m 596.01944,13.015084 h 1.63918 v 0.3514 h -1.25677 v 0.756542 q 0.091,-0.03101 0.1819,-0.04547 0.091,-0.01654 0.1819,-0.01654 0.51676,0 0.81855,0.283187 0.30179,0.283187 0.30179,0.766878 0,0.49816 -0.31006,0.775145 -0.31005,0.274919 -0.87436,0.274919 -0.1943,0 -0.39687,-0.03307 -0.20051,-0.03307 -0.41548,-0.09922 v -0.419612 q 0.18603,0.101286 0.38447,0.150895 0.19844,0.04961 0.41961,0.04961 0.3576,0 0.56637,-0.188102 0.20878,-0.188102 0.20878,-0.510562 0,-0.322461 -0.20878,-0.510563 -0.20877,-0.188102 -0.56637,-0.188102 -0.16743,0 -0.33486,0.03721 -0.16537,0.03721 -0.339,0.115755 z"
         id="text202"
         style="font-size:4.23333px;font-family:'DejaVu Sans';-inkscape-font-specification:'DejaVu Sans';fill:#ffffff;stroke-width:0.7;paint-order:stroke fill markers"
         aria-label="5" /><path
         d="m 586.90943,10.554224 q -0.28111,0 -0.44647,0.192231 -0.16329,0.19223 -0.16329,0.527083 0,0.332786 0.16329,0.527083 0.16536,0.19223 0.44647,0.19223 0.28111,0 0.44441,-0.19223 0.16536,-0.194297 0.16536,-0.527083 0,-0.334853 -0.16536,-0.527083 -0.1633,-0.192231 -0.44441,-0.192231 z M 587.7383,9.2458184 V 9.626145 q -0.15709,-0.074412 -0.31832,-0.1136846 -0.15916,-0.039273 -0.31625,-0.039273 -0.4134,0 -0.6325,0.2790439 -0.21703,0.2790437 -0.24804,0.8433327 0.12195,-0.179828 0.30592,-0.27491 0.18396,-0.09715 0.40513,-0.09715 0.46507,0 0.73378,0.283178 0.27077,0.281111 0.27077,0.766854 0,0.475408 -0.28111,0.76272 -0.28111,0.287312 -0.74825,0.287312 -0.53535,0 -0.81853,-0.409265 -0.28317,-0.411331 -0.28317,-1.190587 0,-0.7317156 0.34725,-1.165784 0.34726,-0.4361353 0.93221,-0.4361353 0.1571,0 0.31625,0.031005 0.16123,0.031005 0.33486,0.093015 z"
         id="text203"
         style="font-size:4.2332px;font-family:'DejaVu Sans';-inkscape-font-specification:'DejaVu Sans';fill:#ffffff;stroke-width:0.699978;paint-order:stroke fill markers"
         aria-label="6"
         transform="scale(0.9999685,1.0000315)" /><path
         d="m 579.59421,1.2360473 h 1.98438 V 1.413814 l -1.12035,2.9083472 h -0.43615 l 1.0542,-2.7347145 h -1.48208 z"
         id="text204"
         style="font-size:4.23333px;font-family:'DejaVu Sans';-inkscape-font-specification:'DejaVu Sans';fill:#ffffff;stroke-width:0.7;paint-order:stroke fill markers"
         aria-label="7" /><path
         d="m 580.58656,-8.2675343 q -0.29766,0 -0.46922,0.1591633 -0.1695,0.1591632 -0.1695,0.4382157 0,0.2790525 0.1695,0.4382158 0.17156,0.1591633 0.46922,0.1591633 0.29765,0 0.46922,-0.1591633 0.17157,-0.1612303 0.17157,-0.4382158 0,-0.2790525 -0.17157,-0.4382157 -0.1695,-0.1591633 -0.46922,-0.1591633 z m -0.41755,-0.1777668 q -0.26871,-0.066146 -0.41961,-0.2501137 -0.14883,-0.183968 -0.14883,-0.4485511 0,-0.3700029 0.26252,-0.5849767 0.26458,-0.2149738 0.72347,-0.2149738 0.46095,0 0.72347,0.2149738 0.26251,0.2149738 0.26251,0.5849767 0,0.2645831 -0.15089,0.4485511 -0.14883,0.1839679 -0.41548,0.2501137 0.30179,0.07028 0.46922,0.2749184 0.1695,0.2046385 0.1695,0.5002274 0,0.4485511 -0.27492,0.6883295 -0.27285,0.2397785 -0.78341,0.2397785 -0.51056,0 -0.78548,-0.2397785 -0.27285,-0.2397784 -0.27285,-0.6883295 0,-0.2955889 0.1695,-0.5002274 0.16949,-0.2046385 0.47128,-0.2749184 z m -0.15296,-0.6593907 q 0,0.2397784 0.14883,0.374137 0.15089,0.1343586 0.42168,0.1343586 0.26872,0 0.41961,-0.1343586 0.15296,-0.1343586 0.15296,-0.374137 0,-0.2397785 -0.15296,-0.3741371 -0.15089,-0.1343586 -0.41961,-0.1343586 -0.27079,0 -0.42168,0.1343586 -0.14883,0.1343586 -0.14883,0.3741371 z"
         id="text205"
         style="font-size:4.23333px;font-family:'DejaVu Sans';-inkscape-font-specification:'DejaVu Sans';fill:#ffffff;stroke-width:0.7;paint-order:stroke fill markers"
         aria-label="8" /><path
         d="m 586.08862,-14.987947 v -0.380338 q 0.1571,0.07441 0.31833,0.113688 0.16123,0.03927 0.31626,0.03927 0.41341,0 0.63045,-0.276985 0.21911,-0.279053 0.25011,-0.845426 -0.11988,0.177767 -0.30385,0.272851 -0.18397,0.09508 -0.40721,0.09508 -0.46302,0 -0.73381,-0.279053 -0.26871,-0.281119 -0.26871,-0.766877 0,-0.475423 0.28111,-0.762744 0.28112,-0.287321 0.74828,-0.287321 0.53537,0 0.81649,0.411344 0.28318,0.409277 0.28318,1.190624 0,0.729671 -0.34726,1.16582 -0.3452,0.434081 -0.93018,0.434081 -0.15709,0 -0.31832,-0.031 -0.16123,-0.03101 -0.33487,-0.09302 z m 0.83096,-1.308446 q 0.28112,0 0.44442,-0.192236 0.16536,-0.192236 0.16536,-0.527099 0,-0.332796 -0.16536,-0.525033 -0.1633,-0.194303 -0.44442,-0.194303 -0.28112,0 -0.44649,0.194303 -0.16329,0.192237 -0.16329,0.525033 0,0.334863 0.16329,0.527099 0.16537,0.192236 0.44649,0.192236 z"
         id="text206"
         style="font-size:4.23333px;font-family:'DejaVu Sans';-inkscape-font-specification:'DejaVu Sans';fill:#ffffff;stroke-width:0.7;paint-order:stroke fill markers"
         aria-label="9" /><path
         d="m 594.7833,-10.850572 -0.56637,1.5358222 h 1.13481 z m -0.23564,-0.411344 h 0.47336 l 1.17615,3.0861138 h -0.43408 l -0.28112,-0.7916823 h -1.39113 l -0.28112,0.7916823 h -0.44028 z m 2.10013,0 h 0.41754 v 2.7347143 h 1.50275 v 0.3513995 h -1.92029 z m 1.34772,0 h 2.61069 v 0.351399 h -1.09554 v 2.7347148 h -0.41961 v -2.7347148 h -1.09554 z"
         id="text207"
         style="font-size:4.23333px;font-family:'DejaVu Sans';-inkscape-font-specification:'DejaVu Sans';fill:#ffffff;stroke-width:0.7;paint-order:stroke fill markers"
         aria-label="ALT" /><path
         d="m 590.57994,5.0744366 h 0.45475 V 3.5048523 l -0.49471,0.099219 V 3.3505122 l 0.49196,-0.099219 h 0.27836 v 1.8231431 h 0.45475 v 0.2342663 h -1.18511 z m 2.34266,-1.6398642 q -0.21497,0 -0.32383,0.2122177 -0.10749,0.2108397 -0.10749,0.6352752 0,0.4230574 0.10749,0.6352751 0.10886,0.2108397 0.32383,0.2108397 0.21636,0 0.32384,-0.2108397 0.10887,-0.2122177 0.10887,-0.6352751 0,-0.4244355 -0.10887,-0.6352752 -0.10748,-0.2122177 -0.32384,-0.2122177 z m 0,-0.2204859 q 0.34589,0 0.52779,0.2742294 0.18328,0.2728513 0.18328,0.7937494 0,0.51952 -0.18328,0.7937494 -0.1819,0.2728513 -0.52779,0.2728513 -0.34588,0 -0.52916,-0.2728513 -0.1819,-0.2742294 -0.1819,-0.7937494 0,-0.5208981 0.1819,-0.7937494 0.18328,-0.2742294 0.52916,-0.2742294 z m 1.79559,0.2204859 q -0.21498,0 -0.32384,0.2122177 -0.10749,0.2108397 -0.10749,0.6352752 0,0.4230574 0.10749,0.6352751 0.10886,0.2108397 0.32384,0.2108397 0.21635,0 0.32384,-0.2108397 0.10886,-0.2122177 0.10886,-0.6352751 0,-0.4244355 -0.10886,-0.6352752 -0.10749,-0.2122177 -0.32384,-0.2122177 z m 0,-0.2204859 q 0.34588,0 0.52778,0.2742294 0.18328,0.2728513 0.18328,0.7937494 0,0.51952 -0.18328,0.7937494 -0.1819,0.2728513 -0.52778,0.2728513 -0.34589,0 -0.52917,-0.2728513 -0.1819,-0.2742294 -0.1819,-0.7937494 0,-0.5208981 0.1819,-0.7937494 0.18328,-0.2742294 0.52917,-0.2742294 z m 2.07256,0.037207 h 1.18236 v 0.2342663 h -0.90399 v 0.6063363 h 0.8158 v 0.2342664 h -0.8158 v 0.9825404 h -0.27837 z m 1.62333,0 h 1.30087 v 0.2342663 h -1.0225 v 0.6090924 h 0.97978 v 0.2342663 h -0.97978 v 0.7455181 h 1.0473 v 0.2342663 h -1.32567 z m 1.78318,0 h 1.30087 v 0.2342663 h -1.0225 v 0.6090924 h 0.97978 v 0.2342663 h -0.97978 v 0.7455181 h 1.0473 v 0.2342663 h -1.32567 z m 1.49793,0 h 1.74046 v 0.2342663 h -0.73036 v 1.8231431 h -0.27974 V 3.4855598 h -0.73036 z"
         id="text209"
         style="font-size:2.82222px;font-family:'DejaVu Sans';-inkscape-font-specification:'DejaVu Sans';fill:#ffffff;stroke-width:0.7;paint-order:stroke fill markers"
         aria-label="100 FEET&#10;" /></g></g></svg>
