<?xml version="1.0" encoding="UTF-8" standalone="no"?>
<!-- Created with Inkscape (http://www.inkscape.org/) -->

<svg
   width="43.129379mm"
   height="46.735607mm"
   viewBox="0 0 43.129379 46.735607"
   version="1.1"
   id="svg1"
   xml:space="preserve"
   xmlns="http://www.w3.org/2000/svg"
   xmlns:svg="http://www.w3.org/2000/svg"><defs
     id="defs1" /><g
     id="layer15"
     transform="translate(-476.55358,15.841063)"><g
       id="layer17"
       style="display:inline"><g
         id="g146"
         transform="translate(15.267778,7.1548821)"
         style="display:inline"><path
           id="path143"
           style="display:inline;fill:#151d28;fill-opacity:1;stroke:none;stroke-width:4.45955;stroke-dasharray:none;stroke-opacity:1;paint-order:stroke fill markers"
           d="M 461.28578,9.7716965 A 27.456907,34.351359 0 0 0 482.8502,22.988861 27.456907,34.351359 0 0 0 504.41517,9.7716965 Z" /><rect
           style="fill:#151d28;fill-opacity:1;stroke:none;stroke-width:0.7;stroke-dasharray:none;stroke-opacity:1;paint-order:stroke fill markers"
           id="rect143"
           width="16.417978"
           height="16.417978"
           x="341.79529"
           y="-341.05829"
           transform="rotate(45)" /><path
           style="fill:#151d28;fill-opacity:1;stroke:#151d28;stroke-width:0.7;stroke-dasharray:none;stroke-opacity:1;paint-order:stroke fill markers"
           d="m 482.85044,1.9436055 v -4.341551"
           id="path144" /><circle
           style="display:inline;fill:#de9e41;fill-opacity:1;stroke:none;stroke-width:0.17082;stroke-dasharray:none;stroke-opacity:1;paint-order:stroke fill markers"
           id="circle144"
           cx="482.85043"
           cy="-2.3335633"
           r="0.65898293" /><path
           id="path145"
           style="display:inline;fill:none;fill-opacity:1;stroke:#151d28;stroke-width:0.35;stroke-dasharray:none;stroke-opacity:1;paint-order:stroke fill markers"
           d="m 479.34655,-2.3336255 a 3.5039999,3.5033698 0 0 0 1.75183,3.03392404 3.5039999,3.5033698 0 0 0 3.50418,0 3.5039999,3.5033698 0 0 0 1.75183,-3.03392404 h -0.33279 a 3.171236,3.171236 0 0 1 -3.17138,3.17138304 3.171236,3.171236 0 0 1 -3.17087,-3.17138304 z" /><rect
           style="fill:#de9e41;fill-opacity:1;stroke:none;stroke-width:1.1989;stroke-dasharray:none;stroke-opacity:1;paint-order:stroke fill markers"
           id="rect145"
           width="7.4791107"
           height="0.76874518"
           x="472.39758"
           y="-2.7523103" /><rect
           style="fill:#de9e41;fill-opacity:1;stroke:none;stroke-width:1.1989;stroke-dasharray:none;stroke-opacity:1;paint-order:stroke fill markers"
           id="rect146"
           width="7.4791107"
           height="0.76874518"
           x="485.82394"
           y="-2.7527223" /><path
           style="display:inline;fill:none;fill-opacity:1;stroke:#de9e41;stroke-width:0.885571;stroke-dasharray:none;stroke-opacity:1;paint-order:stroke fill markers"
           id="path146"
           d="m 506.31941,54.290768 -4.21084,0 2.10542,-3.646696 z"
           transform="matrix(0.67020714,0,0,0.93226595,144.92262,-69.384101)" /></g></g></g></svg>
