<?xml version="1.0" encoding="UTF-8" standalone="no"?>
<!-- Created with Inkscape (http://www.inkscape.org/) -->

<svg
   width="54.321041mm"
   height="54.321426mm"
   viewBox="0 0 54.321041 54.321426"
   version="1.1"
   id="svg1"
   xml:space="preserve"
   xmlns="http://www.w3.org/2000/svg"
   xmlns:svg="http://www.w3.org/2000/svg"><defs
     id="defs1" /><g
     id="layer15"
     transform="translate(-651.26396,33.60006)"><g
       id="g241"
       style="display:inline"><ellipse
         style="display:inline;fill:#151d28;fill-opacity:1;stroke:#151d28;stroke-width:3.677;stroke-dasharray:none;stroke-opacity:1;paint-order:stroke fill markers"
         id="ellipse225"
         cx="678.42444"
         cy="-6.4393473"
         rx="25.322001"
         ry="25.322214" /><circle
         style="display:inline;fill:#ffffff;fill-opacity:1;stroke:none;stroke-width:0.0796741;stroke-dasharray:none;stroke-opacity:1;paint-order:stroke fill markers"
         id="circle225"
         cx="678.42444"
         cy="-6.4393473"
         r="0.3073639" /><path
         id="path225"
         style="display:inline;fill:none;stroke:#ffffff;stroke-width:0.7;stroke-dasharray:none;stroke-opacity:1;paint-order:stroke fill markers"
         d="m 351.48845,67.687401 h 4.03781 m -6.52132,9.250267 3.54194,1.84695 m -9.98107,5.344047 2.25627,3.282735 m -11.13395,0.331906 0.48372,4.004451 m -9.97787,-5.269909 -1.41193,3.751784 m -6.43611,-9.344239 -2.9789,2.63517 m -1.67206,-11.045437 -3.90753,0.955938 m 3.90753,-10.531388 -3.90753,-0.955938 m 8.55849,-7.454329 -2.9789,-2.63517 m 10.82694,-2.957285 -1.41193,-3.751784 m 10.90608,2.486326 0.48372,-4.004451 m 8.39396,7.619092 2.25627,-3.282735 m 4.18286,10.473732 3.54194,-1.84695 m -1.05843,11.097217 h 4.03781"
         transform="rotate(105,533.25521,163.79185)" /><path
         d="m 678.79499,-25.267834 q -0.32246,0 -0.48575,0.318327 -0.16123,0.316259 -0.16123,0.952912 0,0.634586 0.16123,0.952913 0.16329,0.316259 0.48575,0.316259 0.32453,0 0.48576,-0.316259 0.1633,-0.318327 0.1633,-0.952913 0,-0.636653 -0.1633,-0.952912 -0.16123,-0.318327 -0.48576,-0.318327 z m 0,-0.330729 q 0.51883,0 0.79169,0.411344 0.27491,0.409277 0.27491,1.190624 0,0.77928 -0.27491,1.190624 -0.27286,0.409277 -0.79169,0.409277 -0.51883,0 -0.79375,-0.409277 -0.27285,-0.411344 -0.27285,-1.190624 0,-0.781347 0.27285,-1.190624 0.27492,-0.411344 0.79375,-0.411344 z"
         id="text226"
         style="font-size:4.23333px;font-family:'DejaVu Sans';-inkscape-font-specification:'DejaVu Sans';fill:#ffffff;stroke-width:0.7;paint-order:stroke fill markers"
         aria-label="0" /><path
         d="m 685.88117,-20.426217 h 0.68213 v -2.354376 l -0.74207,0.148828 v -0.380339 l 0.73794,-0.148828 h 0.41754 v 2.734715 h 0.68213 v 0.351399 h -1.77767 z"
         id="text227"
         style="font-size:4.23333px;font-family:'DejaVu Sans';-inkscape-font-specification:'DejaVu Sans';fill:#ffffff;stroke-width:0.7;paint-order:stroke fill markers"
         aria-label="1" /><path
         d="m 692.63572,-15.028799 h 1.45727 v 0.351399 h -1.95957 v -0.351399 q 0.23771,-0.24598 0.64699,-0.659391 0.41135,-0.415478 0.51676,-0.535367 0.20051,-0.225309 0.27906,-0.380338 0.0806,-0.157097 0.0806,-0.307992 0,-0.245979 -0.17363,-0.401008 -0.17157,-0.15503 -0.44855,-0.15503 -0.19637,0 -0.41548,0.06821 -0.21704,0.06821 -0.46509,0.206706 v -0.42168 q 0.25218,-0.101285 0.47129,-0.152962 0.21911,-0.05168 0.40101,-0.05168 0.47956,0 0.76481,0.239778 0.28525,0.239779 0.28525,0.640788 0,0.190169 -0.0723,0.361734 -0.0703,0.169499 -0.25838,0.401009 -0.0517,0.05994 -0.32867,0.347265 -0.27698,0.285254 -0.78134,0.799951 z"
         id="text228"
         style="font-size:4.23333px;font-family:'DejaVu Sans';-inkscape-font-specification:'DejaVu Sans';fill:#ffffff;stroke-width:0.7;paint-order:stroke fill markers"
         aria-label="2" /><path
         d="m 696.86085,-8.1572439 q 0.29972,0.064079 0.46716,0.2666501 0.16949,0.2025715 0.16949,0.5002275 0,0.4568193 -0.31419,0.706933 -0.31419,0.2501137 -0.89297,0.2501137 -0.1943,0 -0.40101,-0.039274 -0.20463,-0.037207 -0.42374,-0.1136881 v -0.4030758 q 0.17363,0.1012857 0.38034,0.1529621 0.2067,0.051676 0.43201,0.051676 0.39274,0 0.59738,-0.1550292 0.20671,-0.1550292 0.20671,-0.4506181 0,-0.2728513 -0.19224,-0.4258135 -0.19017,-0.1550291 -0.53123,-0.1550291 h -0.35967 v -0.3431312 h 0.3762 q 0.30799,0 0.47129,-0.1219563 0.1633,-0.1240234 0.1633,-0.3555336 0,-0.2377114 -0.1695,-0.3638018 -0.16743,-0.1281574 -0.48162,-0.1281574 -0.17157,0 -0.36794,0.037207 -0.19637,0.037207 -0.43201,0.1157551 v -0.37207 q 0.23771,-0.066146 0.44441,-0.099219 0.20878,-0.033073 0.39274,-0.033073 0.47543,0 0.75241,0.2170408 0.27699,0.2149738 0.27699,0.5829097 0,0.2563148 -0.14676,0.4340816 -0.14677,0.1756997 -0.41755,0.2439135 z"
         id="text229"
         style="font-size:4.23333px;font-family:'DejaVu Sans';-inkscape-font-specification:'DejaVu Sans';fill:#ffffff;stroke-width:0.7;paint-order:stroke fill markers"
         aria-label="3" /><path
         d="m 695.37389,-0.38148494 -1.0542,1.64744324 h 1.0542 z m -0.10956,-0.36380177 h 0.52504 V 1.2659583 h 0.44028 v 0.3472654 h -0.44028 v 0.7276035 h -0.41548 V 1.6132237 h -1.3932 V 1.2101478 Z"
         id="text230"
         style="font-size:4.23333px;font-family:'DejaVu Sans';-inkscape-font-specification:'DejaVu Sans';fill:#ffffff;stroke-width:0.7;paint-order:stroke fill markers"
         aria-label="4" /><path
         d="m 682.2885,10.327585 q -0.28112,0 -0.44648,0.192236 -0.1633,0.192236 -0.1633,0.527099 0,0.332796 0.1633,0.527099 0.16536,0.192236 0.44648,0.192236 0.28112,0 0.44442,-0.192236 0.16537,-0.194303 0.16537,-0.527099 0,-0.334863 -0.16537,-0.527099 -0.1633,-0.192236 -0.44442,-0.192236 z m 0.82889,-1.3084464 v 0.3803383 q -0.15709,-0.074414 -0.31832,-0.1136881 -0.15917,-0.039274 -0.31626,-0.039274 -0.41341,0 -0.63252,0.2790525 -0.21704,0.2790525 -0.24805,0.8433587 0.12196,-0.179834 0.30593,-0.274918 0.18396,-0.097152 0.40514,-0.097152 0.46509,0 0.7338,0.283187 0.27079,0.281119 0.27079,0.766877 0,0.475423 -0.28112,0.762744 -0.28112,0.28732 -0.74828,0.28732 -0.53536,0 -0.81855,-0.409277 -0.28319,-0.411344 -0.28319,-1.190624 0,-0.7317372 0.34727,-1.1658189 0.34726,-0.4361487 0.93224,-0.4361487 0.1571,0 0.31626,0.031006 0.16123,0.031006 0.33486,0.093017 z"
         id="text231"
         style="font-size:4.23333px;font-family:'DejaVu Sans';-inkscape-font-specification:'DejaVu Sans';fill:#ffffff;stroke-width:0.7;paint-order:stroke fill markers"
         aria-label="6" /><path
         d="m 689.00887,5.2832366 h 1.63912 v 0.3513887 h -1.25673 v 0.7565192 q 0.091,-0.031005 0.1819,-0.045474 0.0909,-0.016536 0.18189,-0.016536 0.51675,0 0.81853,0.2831779 0.30178,0.283178 0.30178,0.7668541 0,0.4981452 -0.31005,0.7751221 -0.31005,0.27491 -0.87433,0.27491 -0.1943,0 -0.39687,-0.033072 -0.2005,-0.033072 -0.41546,-0.099216 V 7.8773119 q 0.18603,0.1012826 0.38446,0.1508904 0.19843,0.049608 0.4196,0.049608 0.35759,0 0.56635,-0.1880963 0.20877,-0.1880963 0.20877,-0.5105471 0,-0.3224507 -0.20877,-0.510547 -0.20876,-0.1880963 -0.56635,-0.1880963 -0.16743,0 -0.33486,0.037206 -0.16535,0.037206 -0.33898,0.1157516 z"
         id="text232"
         style="font-size:4.2332px;font-family:'DejaVu Sans';-inkscape-font-specification:'DejaVu Sans';fill:#ffffff;stroke-width:0.699978;paint-order:stroke fill markers"
         transform="scale(0.9999685,1.0000315)"
         aria-label="5" /><path
         d="M 661.14868,0.53726944 V 0.15693122 q 0.1571,0.074414 0.31833,0.11368805 0.16123,0.0392741 0.31626,0.0392741 0.41341,0 0.63045,-0.27698545 0.21911,-0.2790525 0.25011,-0.84542572 -0.11989,0.17776678 -0.30385,0.27285134 -0.18397,0.0950846 -0.40721,0.0950846 -0.46302,0 -0.73381,-0.2790525 -0.26872,-0.28111954 -0.26872,-0.76687764 0,-0.4754227 0.28112,-0.7627435 0.28112,-0.2873207 0.74828,-0.2873207 0.53536,0 0.81648,0.4113441 0.28319,0.409277 0.28319,1.19062396 0,0.72967061 -0.34726,1.16581934 -0.3452,0.43408166 -0.93018,0.43408166 -0.1571,0 -0.31833,-0.0310058 -0.16123,-0.0310058 -0.33486,-0.0930176 z m 0.83096,-1.30844617 q 0.28112,0 0.44441,-0.19223616 0.16537,-0.19223621 0.16537,-0.52709921 0,-0.3327959 -0.16537,-0.5250321 -0.16329,-0.1943032 -0.44441,-0.1943032 -0.28112,0 -0.44649,0.1943032 -0.16329,0.1922362 -0.16329,0.5250321 0,0.334863 0.16329,0.52709921 0.16537,0.19223616 0.44649,0.19223616 z"
         id="text233"
         style="font-size:4.23333px;font-family:'DejaVu Sans';-inkscape-font-specification:'DejaVu Sans';fill:#ffffff;stroke-width:0.7;paint-order:stroke fill markers"
         aria-label="9" /><path
         d="m 660.0116,-7.9501209 h 0.68213 v -2.3543761 l -0.74207,0.148828 v -0.380338 l 0.73794,-0.148828 h 0.41754 v 2.7347141 h 0.68213 v 0.3513994 h -1.77767 z m 3.514,-2.4597961 q -0.32246,0 -0.48576,0.318326 -0.16123,0.31626 -0.16123,0.9529131 0,0.6345861 0.16123,0.9529126 0.1633,0.3162595 0.48576,0.3162595 0.32453,0 0.48576,-0.3162595 0.16329,-0.3183265 0.16329,-0.9529126 0,-0.6366531 -0.16329,-0.9529131 -0.16123,-0.318326 -0.48576,-0.318326 z m 0,-0.330729 q 0.51883,0 0.79168,0.411344 0.27492,0.4092771 0.27492,1.1906241 0,0.77928 -0.27492,1.190624 -0.27285,0.409277 -0.79168,0.409277 -0.51883,0 -0.79375,-0.409277 -0.27285,-0.411344 -0.27285,-1.190624 0,-0.781347 0.27285,-1.1906241 0.27492,-0.411344 0.79375,-0.411344 z"
         id="text234"
         style="font-size:4.23333px;font-family:'DejaVu Sans';-inkscape-font-specification:'DejaVu Sans';fill:#ffffff;stroke-width:0.7;paint-order:stroke fill markers"
         aria-label="10" /><path
         d="m 662.82825,-15.02249 h 0.68213 v -2.354376 l -0.74207,0.148828 v -0.380338 l 0.73794,-0.148828 h 0.41754 v 2.734714 h 0.68213 v 0.3514 h -1.77767 z m 2.69338,0 h 0.68213 v -2.354376 l -0.74208,0.148828 v -0.380338 l 0.73794,-0.148828 h 0.41755 v 2.734714 h 0.68213 v 0.3514 h -1.77767 z"
         id="text235"
         style="font-size:4.23333px;font-family:'DejaVu Sans';-inkscape-font-specification:'DejaVu Sans';fill:#ffffff;stroke-width:0.7;paint-order:stroke fill markers"
         aria-label="11" /><path
         d="m 675.5409,-14.745021 v 0.440282 q -0.21084,-0.19637 -0.45062,-0.293521 -0.23771,-0.09715 -0.50643,-0.09715 -0.52916,0 -0.81028,0.324528 -0.28112,0.32246 -0.28112,0.934309 0,0.609781 0.28112,0.934309 0.28112,0.322461 0.81028,0.322461 0.26872,0 0.50643,-0.09715 0.23978,-0.09715 0.45062,-0.293522 v 0.436149 q -0.21911,0.148828 -0.46509,0.223242 -0.24391,0.07441 -0.51676,0.07441 -0.70073,0 -1.10381,-0.427881 -0.40308,-0.429947 -0.40308,-1.17202 0,-0.74414 0.40308,-1.172021 0.40308,-0.429947 1.10381,-0.429947 0.27698,0 0.5209,0.07441 0.24598,0.07235 0.46095,0.219108 z m 1.89756,0.04547 q -0.45476,0 -0.72347,0.338997 -0.26665,0.338997 -0.26665,0.923974 0,0.582909 0.26665,0.921907 0.26871,0.338997 0.72347,0.338997 0.45475,0 0.71933,-0.338997 0.26665,-0.338998 0.26665,-0.921907 0,-0.584977 -0.26665,-0.923974 -0.26458,-0.338997 -0.71933,-0.338997 z m 0,-0.338997 q 0.64905,0 1.03766,0.436148 0.3886,0.434082 0.3886,1.16582 0,0.72967 -0.3886,1.165819 -0.38861,0.434082 -1.03766,0.434082 -0.65113,0 -1.0418,-0.434082 -0.38861,-0.434082 -0.38861,-1.165819 0,-0.731738 0.38861,-1.16582 0.39067,-0.436148 1.0418,-0.436148 z m 2.07945,0.05581 h 0.41755 v 2.734715 h 1.50275 v 0.351399 h -1.9203 z m 2.35852,0 h 0.41754 v 2.734715 h 1.50275 v 0.351399 h -1.92029 z"
         id="text236"
         style="font-size:4.23333px;font-family:'DejaVu Sans';-inkscape-font-specification:'DejaVu Sans';fill:#ffffff;stroke-width:0.7;paint-order:stroke fill markers"
         aria-label="COLL" /><path
         d="M 672.18883,-0.24076539 V 1.3591357 h 0.33624 q 0.42582,0 0.62288,-0.1929252 0.19843,-0.19292516 0.19843,-0.60909238 0,-0.41341115 -0.19843,-0.60495831 -0.19706,-0.1929252 -0.62288,-0.1929252 z m -0.27836,-0.22875417 h 0.57188 q 0.59807,0 0.87781,0.24942473 0.27975,0.24804668 0.27975,0.77721295 0,0.53192238 -0.28112,0.78134708 -0.28112,0.2494247 -0.87644,0.2494247 h -0.57188 z m 2.17316,0 h 1.30087 v 0.23426632 h -1.0225 v 0.60909242 h 0.97978 V 0.60810549 H 674.362 V 1.3536236 h 1.04731 v 0.2342663 h -1.32568 z M 677.26966,1.294368 V 0.7417751 H 676.8149 V 0.51302093 h 0.73036 V 1.3963427 q -0.16123,0.1143771 -0.35553,0.1736327 -0.1943,0.057878 -0.41479,0.057878 -0.48231,0 -0.75516,-0.2811196 -0.27148,-0.2824976 -0.27148,-0.78548117 0,-0.5043616 0.27148,-0.78548117 0.27285,-0.28249762 0.75516,-0.28249762 0.20119,0 0.38172,0.0496093 0.1819,0.0496093 0.33486,0.14607193 v 0.29627799 q -0.15434,-0.13091353 -0.32797,-0.19705931 -0.17364,-0.0661458 -0.36518,-0.0661458 -0.37759,0 -0.56775,0.21083968 -0.1888,0.21083968 -0.1888,0.62838494 0,0.41616722 0.1888,0.62700683 0.19016,0.2108397 0.56775,0.2108397 0.14745,0 0.2632,-0.024805 0.11576,-0.026183 0.20809,-0.079926 z m 1.75975,-0.6711041 q 0.0896,0.0303168 0.17363,0.1295355 0.0854,0.0992187 0.17088,0.2728514 l 0.2825,0.5622391 h -0.29904 l -0.2632,-0.5277882 q -0.10198,-0.20670559 -0.19844,-0.27422941 -0.0951,-0.0675238 -0.26045,-0.0675238 h -0.30317 V 1.5878899 h -0.27836 v -2.05740946 h 0.62838 q 0.35278,0 0.52641,0.14744998 0.17364,0.14744997 0.17364,0.445106 0,0.19430324 -0.091,0.32246069 -0.0896,0.12815746 -0.26183,0.17776679 z m -0.69729,-0.86402929 V 0.4895943 h 0.35002 q 0.2012,0 0.30317,-0.0923285 0.10335,-0.0937065 0.10335,-0.27422939 0,-0.18052287 -0.10335,-0.27147332 -0.10197,-0.0923285 -0.30317,-0.0923285 z m 1.68259,-0.22875417 h 1.30086 v 0.23426632 h -1.0225 v 0.60909242 h 0.97978 v 0.23426631 h -0.97978 V 1.3536236 h 1.04731 v 0.2342663 h -1.32567 z m 1.78318,0 h 1.30086 v 0.23426632 h -1.0225 v 0.60909242 h 0.97978 v 0.23426631 h -0.97978 V 1.3536236 h 1.04731 v 0.2342663 h -1.32567 z m 3.01652,0.0675238 v 0.27147332 q -0.15847,-0.075792 -0.29903,-0.11299905 -0.14056,-0.037207 -0.27148,-0.037207 -0.22737,0 -0.3514,0.0881944 -0.12264,0.0881944 -0.12264,0.25080276 0,0.13642568 0.0813,0.20670557 0.0827,0.0689019 0.31144,0.11162101 l 0.16812,0.0344509 q 0.31144,0.0592556 0.45889,0.20946165 0.14882,0.14882801 0.14882,0.3996308 0,0.2990341 -0.20119,0.4533742 -0.19982,0.1543402 -0.58704,0.1543402 -0.14608,0 -0.31144,-0.033073 -0.16399,-0.033073 -0.34038,-0.097841 V 1.2103077 q 0.1695,0.095085 0.33211,0.1433159 0.16261,0.048231 0.31971,0.048231 0.2384,0 0.36793,-0.093706 0.12954,-0.093707 0.12954,-0.2673392 0,-0.15158413 -0.0937,-0.23702243 -0.0923,-0.0854383 -0.30455,-0.12815745 l -0.16949,-0.0330729 q -0.31144,-0.0620117 -0.45062,-0.19430323 -0.13918,-0.13229157 -0.13918,-0.36793592 0,-0.27285136 0.19154,-0.4299476 0.19293,-0.15709623 0.53055,-0.15709623 0.14469,0 0.2949,0.0261827 0.1502,0.0261827 0.3073,0.0785481 z"
         id="text238"
         style="font-size:2.82222px;font-family:'DejaVu Sans';-inkscape-font-specification:'DejaVu Sans';fill:#ffffff;stroke-width:0.7;paint-order:stroke fill markers"
         aria-label="DEGREES&#10;" /><path
         d="m 672.84183,8.6253786 h 1.98438 v 0.1777668 l -1.12035,2.9083476 h -0.43615 l 1.0542,-2.734715 h -1.48208 z"
         id="text239"
         style="font-size:4.23333px;font-family:'DejaVu Sans';-inkscape-font-specification:'DejaVu Sans';fill:#ffffff;stroke-width:0.7;paint-order:stroke fill markers"
         aria-label="7" /><path
         d="m 666.59986,5.8892922 q -0.29765,0 -0.46922,0.1591632 -0.1695,0.1591633 -0.1695,0.4382158 0,0.2790525 0.1695,0.4382158 0.17157,0.1591633 0.46922,0.1591633 0.29766,0 0.46923,-0.1591633 0.17156,-0.1612303 0.17156,-0.4382158 0,-0.2790525 -0.17156,-0.4382158 -0.1695,-0.1591632 -0.46923,-0.1591632 z m -0.41754,-0.1777668 q -0.26872,-0.066146 -0.41961,-0.2501137 -0.14883,-0.183968 -0.14883,-0.4485511 0,-0.3700029 0.26252,-0.5849767 0.26458,-0.2149738 0.72346,-0.2149738 0.46096,0 0.72347,0.2149738 0.26252,0.2149738 0.26252,0.5849767 0,0.2645831 -0.15089,0.4485511 -0.14883,0.1839679 -0.41548,0.2501137 0.30179,0.07028 0.46922,0.2749184 0.1695,0.2046385 0.1695,0.5002274 0,0.4485511 -0.27492,0.6883295 -0.27285,0.2397785 -0.78342,0.2397785 -0.51056,0 -0.78548,-0.2397785 -0.27285,-0.2397784 -0.27285,-0.6883295 0,-0.2955889 0.1695,-0.5002274 0.1695,-0.2046385 0.47129,-0.2749184 z m -0.15296,-0.6593907 q 0,0.2397784 0.14883,0.374137 0.15089,0.1343586 0.42167,0.1343586 0.26872,0 0.41962,-0.1343586 0.15296,-0.1343586 0.15296,-0.374137 0,-0.2397785 -0.15296,-0.3741371 -0.1509,-0.1343586 -0.41962,-0.1343586 -0.27078,0 -0.42167,0.1343586 -0.14883,0.1343586 -0.14883,0.3741371 z"
         id="text240"
         style="font-size:4.23333px;font-family:'DejaVu Sans';-inkscape-font-specification:'DejaVu Sans';fill:#ffffff;stroke-width:0.7;paint-order:stroke fill markers"
         aria-label="8" /><path
         d="m 668.61781,-20.16184 h 0.68212 v -2.354376 l -0.74207,0.148828 v -0.380338 l 0.73794,-0.148828 h 0.41754 v 2.734714 h 0.68213 v 0.3514 h -1.77766 z m 2.98069,0 h 1.45727 v 0.3514 h -1.95956 v -0.3514 q 0.23771,-0.245979 0.64698,-0.65939 0.41135,-0.415478 0.51677,-0.535368 0.2005,-0.225309 0.27905,-0.380338 0.0806,-0.157096 0.0806,-0.307991 0,-0.24598 -0.17364,-0.401009 -0.17156,-0.155029 -0.44855,-0.155029 -0.19637,0 -0.41548,0.06821 -0.21704,0.06821 -0.46508,0.206705 v -0.421679 q 0.25218,-0.101286 0.47128,-0.152962 0.21911,-0.05168 0.40101,-0.05168 0.47956,0 0.76481,0.239779 0.28526,0.239778 0.28526,0.640787 0,0.190169 -0.0723,0.361735 -0.0703,0.169498 -0.25838,0.401009 -0.0517,0.05994 -0.32866,0.347265 -0.27699,0.285254 -0.78135,0.79995 z"
         id="text241"
         style="font-size:4.23333px;font-family:'DejaVu Sans';-inkscape-font-specification:'DejaVu Sans';fill:#ffffff;stroke-width:0.7;paint-order:stroke fill markers"
         aria-label="12" /></g></g></svg>
