<?xml version="1.0" encoding="UTF-8" standalone="no"?>
<!-- Created with Inkscape (http://www.inkscape.org/) -->

<svg
   width="196.52734mm"
   height="76.723114mm"
   viewBox="0 0 196.52734 76.723114"
   version="1.1"
   id="svg1"
   xml:space="preserve"
   xmlns="http://www.w3.org/2000/svg"
   xmlns:svg="http://www.w3.org/2000/svg"><defs
     id="defs1" /><g
     id="g242"
     transform="matrix(4.328822,0,0,4.328822,-2100.7122,-636.39828)"><path
       id="path242"
       style="fill:#202e37;fill-opacity:1;stroke:#394a50;stroke-width:1.15505;stroke-dasharray:none;stroke-opacity:1;paint-order:stroke fill markers"
       d="m 507.98397,147.59172 c -0.003,0 -15.392,0.0623 -16.96719,0.83063 -1.17917,0.57513 -0.5,1.628 -2.94277,2.89526 -2.4428,1.26726 -2.20706,4.16019 -2.20706,4.16019 0,0 0.007,0.026 0.007,5.6083 0,3.13705 1.66775,3.07437 1.66775,3.07437 l 20.44299,-0.13776 20.44319,0.13776 c 0,0 1.66782,0.1483 1.66782,-3.07437 0,-5.58225 0.007,-5.60818 0.007,-5.60818 0,0 0.23574,-2.89305 -2.20706,-4.16031 -2.44277,-1.26726 -1.7636,-2.32013 -2.94277,-2.89526 -1.57519,-0.76829 -16.96462,-0.83063 -16.96727,-0.83063 z" /></g></svg>
