<?xml version="1.0" encoding="UTF-8" standalone="no"?>
<!-- Created with Inkscape (http://www.inkscape.org/) -->

<svg
   width="49.567581mm"
   height="49.567589mm"
   viewBox="0 0 49.567581 49.567589"
   version="1.1"
   id="svg1"
   xmlns="http://www.w3.org/2000/svg"
   xmlns:svg="http://www.w3.org/2000/svg">
  <defs
     id="defs1" />
  <g
     id="layer1"
     style="display:inline"
     transform="translate(-106.1932,-87.457766)">
    <circle
       style="fill:#000000;stroke-width:0.264583"
       id="path1"
       cx="130.97699"
       cy="112.24156"
       r="24.783792" />
    <path
       id="path39"
       style="display:inline;fill:#ffffff;stroke:#ffffff;stroke-width:0.3;stroke-opacity:1;paint-order:stroke fill markers"
       d="m 152.76757,112.33842 -6.87646,-0.0355 c 0.005,0.0818 0.008,0.16368 0.0103,0.2457 0.002,0.0821 0.004,0.16435 0.004,0.24668 l 6.84457,0.31681 c 0.006,-0.12875 0.01,-0.25764 0.0129,-0.38667 0.003,-0.12887 0.005,-0.25786 0.005,-0.38698 z m -5.89116,14.30841 -5.05709,-4.63202 c -0.0628,0.0682 -0.1262,0.13595 -0.19009,0.20323 -0.064,0.0674 -0.12846,0.13426 -0.19346,0.20067 l 4.90552,4.79359 c 0.0908,-0.0929 0.18077,-0.18646 0.27002,-0.28078 0.0891,-0.0942 0.1775,-0.18909 0.2651,-0.28469 z m -13.71085,7.26326 -0.78554,-6.77631 c -0.0827,0.007 -0.16538,0.0132 -0.24798,0.0182 -0.0827,0.005 -0.16536,0.009 -0.24793,0.0119 l 0.51429,6.81821 c 0.12829,-0.009 0.25642,-0.0201 0.38437,-0.0322 0.12778,-0.012 0.25538,-0.0253 0.38279,-0.0399 z m -14.82136,-4.29476 4.11866,-5.47208 c -0.0731,-0.056 -0.14585,-0.11267 -0.2182,-0.16992 -0.0724,-0.0573 -0.1445,-0.11524 -0.21616,-0.17375 l -4.29755,5.33784 c 0.101,0.0814 0.20265,0.16194 0.30493,0.24165 0.10215,0.0796 0.20493,0.15836 0.30832,0.23626 z m -8.64441,-12.94106 6.61778,-1.55537 c -0.0189,-0.0828 -0.0368,-0.16559 -0.0538,-0.24843 -0.017,-0.0829 -0.033,-0.16591 -0.0481,-0.24888 l -6.67699,1.30144 c 0.0244,0.12581 0.0501,0.25136 0.077,0.37665 0.0268,0.12514 0.0549,0.25 0.0841,0.37459 z m 2.61051,-15.16322 5.83575,3.55395 c 0.0482,-0.077 0.0971,-0.15375 0.14675,-0.23018 0.0497,-0.0765 0.10002,-0.15275 0.15105,-0.22866 l -5.71882,-3.75017 c -0.071,0.10815 -0.14112,0.21685 -0.21029,0.3261 -0.0691,0.10912 -0.13723,0.21877 -0.20444,0.32896 z m 12.04889,-9.903167 2.27386,6.407899 c 0.0819,-0.02967 0.16382,-0.05848 0.24589,-0.0864 0.0822,-0.02796 0.16447,-0.05504 0.24684,-0.08122 l -2.03724,-6.48443 c -0.12233,0.03846 -0.24432,0.07805 -0.36596,0.118777 -0.12148,0.04067 -0.24262,0.08247 -0.36339,0.125375 z m 15.33394,0.873219 -2.93789,6.148065 c 0.0799,0.03942 0.15966,0.07962 0.23917,0.120594 0.0796,0.04103 0.15901,0.08282 0.23818,0.125376 l 3.15143,-6.048457 c -0.11429,-0.05965 -0.22905,-0.118305 -0.34428,-0.175942 -0.11508,-0.05756 -0.23062,-0.114112 -0.34661,-0.169636 z m 11.03953,11.034328 -6.14667,2.941 c 0.0395,0.0799 0.0781,0.16005 0.11603,0.24037 0.0379,0.0804 0.0751,0.16103 0.11138,0.24181 l 6.24053,-2.72171 c -0.0515,-0.11784 -0.10403,-0.23527 -0.15761,-0.35226 -0.0535,-0.11684 -0.10807,-0.23325 -0.16366,-0.34921 z" />
  </g>
</svg>
