<?xml version="1.0" encoding="UTF-8" standalone="no"?>
<!-- Created with Inkscape (http://www.inkscape.org/) -->

<svg
   width="54.321007mm"
   height="54.32143mm"
   viewBox="0 0 54.321007 54.32143"
   version="1.1"
   id="svg1"
   xml:space="preserve"
   xmlns="http://www.w3.org/2000/svg"
   xmlns:svg="http://www.w3.org/2000/svg"><defs
     id="defs1" /><g
     id="layer15"
     transform="translate(-396.24205,17.824534)"><g
       id="layer14"><ellipse
         style="display:inline;fill:#151d28;fill-opacity:1;stroke:#151d28;stroke-width:3.677;stroke-dasharray:none;stroke-opacity:1;paint-order:stroke fill markers"
         id="ellipse110-97"
         cx="423.40256"
         cy="9.3361807"
         rx="25.322001"
         ry="25.322214" /><circle
         style="display:inline;fill:#ffffff;fill-opacity:1;stroke:none;stroke-width:0.0796741;stroke-dasharray:none;stroke-opacity:1;paint-order:stroke fill markers"
         id="circle111-7"
         cx="440.70282"
         cy="9.3361807"
         r="0.3073639" /><circle
         style="display:inline;fill:#ffffff;fill-opacity:1;stroke:none;stroke-width:0.120286;stroke-dasharray:none;stroke-opacity:1;paint-order:stroke fill markers"
         id="circle112-6"
         cx="406.10226"
         cy="9.3361807"
         r="0.46403459" /><path
         id="path28-4"
         style="fill:#de9e41;fill-opacity:1;stroke:#de9e41;stroke-width:0.247614;stroke-dasharray:none;stroke-opacity:1;paint-order:stroke fill markers"
         d="m 425.87737,17.567143 -2.47478,1.319818 -2.43344,-1.298112 a 17,17 0 0 1 -0.67696,1.158064 l 3.1104,1.980247 3.14606,-2.002978 a 17,17 0 0 1 -0.67128,-1.157039 z" /><path
         id="path30-3"
         style="display:inline;fill:#de9e41;fill-opacity:1;stroke:none;stroke-width:0.247614;stroke-dasharray:none;stroke-opacity:1;paint-order:stroke fill markers"
         d="m 424.51209,14.448987 -1.1095,0.468701 -1.0635,-0.449577 a 17,17 0 0 1 -1.36994,3.120738 l 2.43344,1.298112 2.47478,-1.319818 a 17,17 0 0 1 -1.36528,-3.118156 z" /><path
         id="path32-0"
         style="display:inline;fill:#de9e41;fill-opacity:1;stroke:#de9e41;stroke-width:0.247614;stroke-dasharray:none;stroke-opacity:1;paint-order:stroke fill markers"
         d="m 425.87737,1.1056114 -2.47478,-1.32033105 -2.40036,1.28054705 a 17,17 0 0 1 2.15283,8.270294 17,17 0 0 1 -0.0103,0.146757 h 0.56845 a 17,17 0 0 1 -0.0103,-0.146757 17,17 0 0 1 2.17454,-8.23051 z" /><path
         id="path29-3"
         style="fill:#75a743;fill-opacity:1;stroke:#75a743;stroke-width:0.247614;stroke-dasharray:none;stroke-opacity:1;paint-order:stroke fill markers"
         d="m 426.54865,-0.05141465 -3.14606,-2.00297695 -3.09645,1.97144695 a 17,17 0 0 1 0.69609,1.14877205 l 2.40036,-1.28054705 2.47478,1.32033105 a 17,17 0 0 1 0.67128,-1.15702605 z" /><path
         id="path27-0"
         style="display:inline;fill:#de9e41;fill-opacity:1;stroke:none;stroke-width:0.247614;stroke-dasharray:none;stroke-opacity:1;paint-order:stroke fill markers"
         d="m 428.43742,-2.3789246 -5.03483,-4.597139 -4.9816,4.548561 a 17,17 0 0 1 1.88515,2.34455795 l 3.09645,-1.97144695 3.14606,2.00297695 a 17,17 0 0 1 1.88877,-2.32750995 z" /><path
         style="color:#000000;fill:#ffffff;-inkscape-stroke:none;paint-order:stroke fill markers"
         d="m 418.06074,-2.3862456 -2.87305,2.69531295 0.50195,0.533203 2.87305,-2.69531295 z m 2.61718,3.34179695 -3.4707,1.89648405 0.35156,0.642578 3.47071,-1.896484 z m 1.74219,3.84570305 -3.86133,0.982422 0.18164,0.710937 3.85938,-0.984375 z m -3.31836,4.167969 v 0.732422 h 4 v -0.732422 z m -0.36133,3.2089836 -0.18164,0.710938 3.86133,0.982422 0.17969,-0.708985 z m -1.18164,3 -0.35156,0.642578 3.4707,1.896485 0.35157,-0.642578 z m -1.86914,2.652344 -0.50195,0.533203 2.87305,2.695313 0.50195,-0.533204 z"
         id="circle115-9" /><path
         id="path43-2"
         style="display:inline;fill:none;fill-opacity:1;stroke:#ffffff;stroke-width:0.7;stroke-dasharray:none;stroke-opacity:1;paint-order:stroke fill markers"
         d="m 415.68896,22.948135 0.2066,0.278095 a 17,17 0 0 0 7.2595,-13.8901086 17,17 0 0 0 -7.24141,-13.913879 v 0 l -0.20618,0.277511" /><path
         id="path45-5"
         style="display:inline;fill:none;fill-opacity:1;stroke:#ffffff;stroke-width:0.7;stroke-dasharray:none;stroke-opacity:1;paint-order:stroke fill markers"
         d="m 431.22393,22.948135 -0.2066,0.278095 a 17,17 0 0 1 -7.2595,-13.8901086 17,17 0 0 1 7.24141,-13.913879 v 0 l 0.20618,0.277511" /><path
         style="color:#000000;fill:#ffffff;-inkscape-stroke:none;paint-order:stroke fill markers"
         d="m 428.92884,-2.3862456 2.87305,2.69531295 -0.50195,0.533203 -2.87305,-2.69531295 z m -2.61718,3.34179695 3.4707,1.89648405 -0.35156,0.642578 -3.47071,-1.896484 z m -1.74219,3.84570305 3.86133,0.982422 -0.18164,0.710937 -3.85938,-0.984375 z m 3.31836,4.167969 v 0.732422 h -4 v -0.732422 z m 0.36133,3.2089836 0.18164,0.710938 -3.86133,0.982422 -0.17969,-0.708985 z m 1.18164,3 0.35156,0.642578 -3.4707,1.896485 -0.35157,-0.642578 z m 1.86914,2.652344 0.50195,0.533203 -2.87305,2.695313 -0.50195,-0.533204 z"
         id="path47-4" /><path
         d="m 414.91082,-10.9782 h 2.92695 v 0.5271 h -2.30064 v 1.3704586 h 2.20452 v 0.5270996 h -2.20452 v 1.6774169 h 2.35645 v 0.5270997 h -2.98276 z"
         id="text47-0"
         style="font-size:6.35px;font-family:'DejaVu Sans';-inkscape-font-specification:'DejaVu Sans';fill:#ffffff;stroke-width:0.7;paint-order:stroke fill markers"
         aria-label="E" /><path
         d="m 430.79503,-8.5194354 q 0.20153,0.068213 0.39067,0.2914551 0.19224,0.2232422 0.38447,0.613916 l 0.63562,1.2650391 h -0.67282 l -0.59222,-1.1875244 q -0.22944,-0.4650879 -0.44648,-0.6170166 -0.21394,-0.1519287 -0.58601,-0.1519287 h -0.68213 v 1.9564697 h -0.62632 V -10.9782 h 1.41387 q 0.79375,0 1.18442,0.331763 0.39068,0.331762 0.39068,1.0014889 0,0.4371827 -0.20464,0.7255371 -0.20154,0.2883545 -0.58911,0.3999756 z m -1.5689,-1.9440676 v 1.6433108 h 0.78755 q 0.45268,0 0.68213,-0.2077393 0.23254,-0.2108398 0.23254,-0.6170166 0,-0.4061769 -0.23254,-0.6108149 -0.22945,-0.20774 -0.68213,-0.20774 z"
         id="text48-9"
         style="font-size:6.35px;font-family:'DejaVu Sans';-inkscape-font-specification:'DejaVu Sans';fill:#ffffff;stroke-width:0.7;paint-order:stroke fill markers"
         aria-label="R" /><path
         d="m 420.3353,27.236867 q -0.13487,0 -0.21239,0.114721 -0.076,0.114722 -0.076,0.319361 0,0.201538 0.076,0.31781 0.0775,0.114722 0.21239,0.114722 0.13178,0 0.20774,-0.114722 0.0775,-0.116272 0.0775,-0.31781 0,-0.203089 -0.0775,-0.31781 -0.076,-0.116272 -0.20774,-0.116272 z m 0,-0.196887 q 0.24495,0 0.38913,0.170532 0.14417,0.170532 0.14417,0.460437 0,0.289905 -0.14572,0.460437 -0.14418,0.168982 -0.38758,0.168982 -0.24804,0 -0.39222,-0.168982 -0.14418,-0.170532 -0.14418,-0.460437 0,-0.291455 0.14418,-0.460437 0.14573,-0.170532 0.39222,-0.170532 z m -1.5999,-0.944129 q -0.13332,0 -0.21084,0.116272 -0.076,0.114722 -0.076,0.31626 0,0.204639 0.076,0.31936 0.076,0.114722 0.21084,0.114722 0.13488,0 0.21084,-0.114722 0.0775,-0.114721 0.0775,-0.31936 0,-0.199988 -0.0775,-0.31626 -0.0775,-0.116272 -0.21084,-0.116272 z m 1.39991,-0.196887 h 0.24805 l -1.44797,2.401404 h -0.24805 z m -1.39991,0 q 0.24495,0 0.39067,0.170532 0.14573,0.168982 0.14573,0.458887 0,0.293005 -0.14573,0.461987 -0.14417,0.168982 -0.39067,0.168982 -0.2465,0 -0.39067,-0.168982 -0.14263,-0.170532 -0.14263,-0.461987 0,-0.288355 0.14418,-0.458887 0.14417,-0.170532 0.38912,-0.170532 z m 4.72684,1.27124 q 0.10077,0.03411 0.19534,0.145728 0.0961,0.111621 0.19224,0.306958 l 0.31781,0.632519 h -0.33642 l -0.2961,-0.593762 q -0.11472,-0.232544 -0.22324,-0.308508 -0.10698,-0.07597 -0.29301,-0.07597 h -0.34106 v 0.978235 h -0.31316 v -2.314587 h 0.70693 q 0.39687,0 0.59221,0.165881 0.19534,0.165882 0.19534,0.500745 0,0.218591 -0.10232,0.362768 -0.10077,0.144178 -0.29456,0.199988 z m -0.78444,-0.972033 v 0.821655 h 0.39377 q 0.22634,0 0.34106,-0.10387 0.11628,-0.10542 0.11628,-0.308508 0,-0.203089 -0.11628,-0.305408 -0.11472,-0.103869 -0.34106,-0.103869 z m 2.20606,0 v 0.869714 h 0.39378 q 0.21859,0 0.33796,-0.113172 0.11937,-0.113171 0.11937,-0.32246 0,-0.20774 -0.11937,-0.320911 -0.11937,-0.113171 -0.33796,-0.113171 z m -0.31316,-0.257349 h 0.70694 q 0.38912,0 0.58756,0.176733 0.19999,0.175183 0.19999,0.514698 0,0.342614 -0.19999,0.517797 -0.19844,0.175183 -0.58756,0.175183 h -0.39378 v 0.930176 h -0.31316 z m 1.91461,0 h 0.46664 l 0.59066,1.575098 0.59377,-1.575098 h 0.46664 v 2.314587 h -0.30541 v -2.032434 l -0.59687,1.5875 h -0.3147 l -0.59687,-1.5875 v 2.032434 h -0.30386 z"
         id="text49-6"
         style="font-size:3.175px;font-family:'DejaVu Sans';-inkscape-font-specification:'DejaVu Sans';fill:#ffffff;stroke-width:0.7;paint-order:stroke fill markers"
         aria-label="% RPM" /><path
         d="m 409.80678,1.2201514 h 0.45475 v -1.56958433 l -0.49472,0.0992187 v -0.25355884 l 0.49196,-0.0992187 h 0.27837 V 1.2201514 h 0.45475 v 0.2342663 h -1.18511 z m 1.79558,0 h 0.45475 v -1.56958433 l -0.49471,0.0992187 v -0.25355884 l 0.49196,-0.0992187 h 0.27836 V 1.2201514 h 0.45475 v 0.2342663 h -1.18511 z m 2.34266,-1.63986422 q -0.21497,0 -0.32384,0.21221772 -0.10748,0.21083968 -0.10748,0.63527513 0,0.4230574 0.10748,0.63527517 0.10887,0.2108396 0.32384,0.2108396 0.21636,0 0.32384,-0.2108396 0.10887,-0.21221777 0.10887,-0.63527517 0,-0.42443545 -0.10887,-0.63527513 -0.10748,-0.21221772 -0.32384,-0.21221772 z m 0,-0.22048595 q 0.34589,0 0.52779,0.2742294 0.18328,0.27285135 0.18328,0.7937494 0,0.51952 -0.18328,0.79374937 -0.1819,0.2728514 -0.52779,0.2728514 -0.34588,0 -0.52916,-0.2728514 -0.1819,-0.27422937 -0.1819,-0.79374937 0,-0.52089805 0.1819,-0.7937494 0.18328,-0.2742294 0.52916,-0.2742294 z"
         id="text50-2"
         style="font-size:2.82222px;font-family:'DejaVu Sans';-inkscape-font-specification:'DejaVu Sans';fill:#ffffff;stroke-width:0.7;paint-order:stroke fill markers"
         aria-label="110" /><path
         d="m 411.74995,4.263288 h 0.45476 V 2.6937037 l -0.49472,0.099219 V 2.5393635 l 0.49196,-0.099219 h 0.27836 V 4.263288 h 0.45476 v 0.2342663 h -1.18512 z m 2.34267,-1.6398642 q -0.21498,0 -0.32384,0.2122177 -0.10749,0.2108397 -0.10749,0.6352751 0,0.4230574 0.10749,0.6352752 0.10886,0.2108396 0.32384,0.2108396 0.21635,0 0.32384,-0.2108396 0.10886,-0.2122178 0.10886,-0.6352752 0,-0.4244354 -0.10886,-0.6352751 -0.10749,-0.2122177 -0.32384,-0.2122177 z m 0,-0.220486 q 0.34588,0 0.52779,0.2742294 0.18327,0.2728514 0.18327,0.7937494 0,0.51952 -0.18327,0.7937494 -0.18191,0.2728514 -0.52779,0.2728514 -0.34589,0 -0.52917,-0.2728514 -0.1819,-0.2742294 -0.1819,-0.7937494 0,-0.520898 0.1819,-0.7937494 0.18328,-0.2742294 0.52917,-0.2742294 z m 1.79558,0.220486 q -0.21497,0 -0.32384,0.2122177 -0.10749,0.2108397 -0.10749,0.6352751 0,0.4230574 0.10749,0.6352752 0.10887,0.2108396 0.32384,0.2108396 0.21635,0 0.32384,-0.2108396 0.10886,-0.2122178 0.10886,-0.6352752 0,-0.4244354 -0.10886,-0.6352751 -0.10749,-0.2122177 -0.32384,-0.2122177 z m 0,-0.220486 q 0.34589,0 0.52779,0.2742294 0.18328,0.2728514 0.18328,0.7937494 0,0.51952 -0.18328,0.7937494 -0.1819,0.2728514 -0.52779,0.2728514 -0.34589,0 -0.52917,-0.2728514 -0.1819,-0.2742294 -0.1819,-0.7937494 0,-0.520898 0.1819,-0.7937494 0.18328,-0.2742294 0.52917,-0.2742294 z"
         id="text54-4"
         style="font-size:2.82222px;font-family:'DejaVu Sans';-inkscape-font-specification:'DejaVu Sans';fill:#ffffff;stroke-width:0.7;paint-order:stroke fill markers"
         aria-label="100" /><path
         d="M 415.04205,7.3222019 V 7.0686431 q 0.10473,0.049609 0.21222,0.075792 0.10749,0.026183 0.21084,0.026183 0.27561,0 0.4203,-0.184657 0.14607,-0.186035 0.16674,-0.5636172 -0.0799,0.1185112 -0.20257,0.1819009 -0.12264,0.06339 -0.27147,0.06339 -0.30868,0 -0.4892,-0.186035 -0.17915,-0.1874131 -0.17915,-0.5112518 0,-0.3169485 0.18741,-0.5084957 0.18742,-0.1915472 0.49885,-0.1915472 0.35692,0 0.54433,0.2742294 0.18879,0.2728514 0.18879,0.7937494 0,0.4864471 -0.23151,0.777213 -0.23013,0.2893878 -0.62012,0.2893878 -0.10473,0 -0.21221,-0.020671 -0.10749,-0.02067 -0.22325,-0.062012 z m 0.55397,-0.8722975 q 0.18742,0 0.29628,-0.1281574 0.11024,-0.1281575 0.11024,-0.3513995 0,-0.221864 -0.11024,-0.3500214 -0.10886,-0.1295355 -0.29628,-0.1295355 -0.18741,0 -0.29765,0.1295355 -0.10887,0.1281574 -0.10887,0.3500214 0,0.223242 0.10887,0.3513995 0.11024,0.1281574 0.29765,0.1281574 z m 1.82866,-0.9591138 q -0.21497,0 -0.32384,0.2122177 -0.10749,0.2108397 -0.10749,0.6352751 0,0.4230574 0.10749,0.6352751 0.10887,0.2108397 0.32384,0.2108397 0.21635,0 0.32384,-0.2108397 0.10886,-0.2122177 0.10886,-0.6352751 0,-0.4244354 -0.10886,-0.6352751 -0.10749,-0.2122177 -0.32384,-0.2122177 z m 0,-0.220486 q 0.34589,0 0.52779,0.2742294 0.18328,0.2728514 0.18328,0.7937494 0,0.51952 -0.18328,0.7937494 -0.1819,0.2728514 -0.52779,0.2728514 -0.34589,0 -0.52917,-0.2728514 -0.1819,-0.2742294 -0.1819,-0.7937494 0,-0.520898 0.1819,-0.7937494 0.18328,-0.2742294 0.52917,-0.2742294 z"
         id="text55-7"
         style="font-size:2.82222px;font-family:'DejaVu Sans';-inkscape-font-specification:'DejaVu Sans';fill:#ffffff;stroke-width:0.7;paint-order:stroke fill markers"
         aria-label="90" /><path
         d="m 416.02006,9.5660682 q -0.19844,0 -0.31282,0.1061089 -0.113,0.1061088 -0.113,0.2921438 0,0.1860351 0.113,0.2921441 0.11438,0.106109 0.31282,0.106109 0.19843,0 0.31281,-0.106109 0.11438,-0.107487 0.11438,-0.2921441 0,-0.186035 -0.11438,-0.2921438 -0.113,-0.1061089 -0.31281,-0.1061089 z M 415.74169,9.447557 q -0.17914,-0.044097 -0.27974,-0.1667425 -0.0992,-0.1226453 -0.0992,-0.2990341 0,-0.2466686 0.17501,-0.3899845 0.17639,-0.1433158 0.48232,-0.1433158 0.3073,0 0.48231,0.1433158 0.17501,0.1433159 0.17501,0.3899845 0,0.1763888 -0.1006,0.2990341 -0.0992,0.1226453 -0.27698,0.1667425 0.20119,0.046853 0.31281,0.1832789 0.113,0.1364257 0.113,0.333485 0,0.2990341 -0.18328,0.4588861 -0.1819,0.159853 -0.52227,0.159853 -0.34038,0 -0.52366,-0.159853 -0.1819,-0.159852 -0.1819,-0.4588861 0,-0.1970593 0.113,-0.333485 0.113,-0.1364256 0.31419,-0.1832789 z m -0.10197,-0.4395938 q 0,0.1598523 0.0992,0.2494247 0.10059,0.089572 0.28112,0.089572 0.17914,0 0.27974,-0.089572 0.10197,-0.089572 0.10197,-0.2494247 0,-0.1598524 -0.10197,-0.2494248 -0.1006,-0.089572 -0.27974,-0.089572 -0.18053,0 -0.28112,0.089572 -0.0992,0.089572 -0.0992,0.2494248 z m 2.17592,-0.3389972 q -0.21497,0 -0.32384,0.2122177 -0.10749,0.2108397 -0.10749,0.6352752 0,0.4230574 0.10749,0.6352751 0.10887,0.21084 0.32384,0.21084 0.21635,0 0.32384,-0.21084 0.10886,-0.2122177 0.10886,-0.6352751 0,-0.4244355 -0.10886,-0.6352752 -0.10749,-0.2122177 -0.32384,-0.2122177 z m 0,-0.2204859 q 0.34589,0 0.52779,0.2742294 0.18328,0.2728513 0.18328,0.7937494 0,0.5195201 -0.18328,0.7937491 -0.1819,0.272852 -0.52779,0.272852 -0.34589,0 -0.52917,-0.272852 -0.1819,-0.274229 -0.1819,-0.7937491 0,-0.5208981 0.1819,-0.7937494 0.18328,-0.2742294 0.52917,-0.2742294 z"
         id="text56-4"
         style="font-size:2.82222px;font-family:'DejaVu Sans';-inkscape-font-specification:'DejaVu Sans';fill:#ffffff;stroke-width:0.7;paint-order:stroke fill markers"
         aria-label="80" /><path
         d="m 414.9635,11.55349 h 1.32292 v 0.118512 l -0.7469,1.938898 h -0.29076 l 0.7028,-1.823143 h -0.98806 z m 2.46118,0.183279 q -0.21497,0 -0.32384,0.212218 -0.10749,0.21084 -0.10749,0.635275 0,0.423058 0.10749,0.635275 0.10887,0.21084 0.32384,0.21084 0.21635,0 0.32384,-0.21084 0.10886,-0.212217 0.10886,-0.635275 0,-0.424435 -0.10886,-0.635275 -0.10749,-0.212218 -0.32384,-0.212218 z m 0,-0.220486 q 0.34589,0 0.52779,0.27423 0.18328,0.272851 0.18328,0.793749 0,0.51952 -0.18328,0.79375 -0.1819,0.272851 -0.52779,0.272851 -0.34589,0 -0.52917,-0.272851 -0.1819,-0.27423 -0.1819,-0.79375 0,-0.520898 0.1819,-0.793749 0.18328,-0.27423 0.52917,-0.27423 z"
         id="text57-1"
         style="font-size:2.82222px;font-family:'DejaVu Sans';-inkscape-font-specification:'DejaVu Sans';fill:#ffffff;stroke-width:0.7;paint-order:stroke fill markers"
         aria-label="70" /><path
         d="m 414.23172,15.464543 q -0.18741,0 -0.29765,0.128157 -0.10887,0.128158 -0.10887,0.3514 0,0.221864 0.10887,0.351399 0.11024,0.128158 0.29765,0.128158 0.18742,0 0.29628,-0.128158 0.11024,-0.129535 0.11024,-0.351399 0,-0.223242 -0.11024,-0.3514 -0.10886,-0.128157 -0.29628,-0.128157 z m 0.5526,-0.872298 v 0.253559 q -0.10473,-0.04961 -0.21222,-0.07579 -0.10611,-0.02618 -0.21084,-0.02618 -0.27561,0 -0.42168,0.186035 -0.14469,0.186035 -0.16536,0.562239 0.0813,-0.119889 0.20395,-0.183279 0.12264,-0.06477 0.27009,-0.06477 0.31006,0 0.4892,0.188791 0.18053,0.187413 0.18053,0.511252 0,0.316948 -0.18742,0.508495 -0.18741,0.191547 -0.49885,0.191547 -0.35691,0 -0.5457,-0.272851 -0.18879,-0.274229 -0.18879,-0.793749 0,-0.487825 0.23151,-0.777213 0.23151,-0.290766 0.6215,-0.290766 0.10473,0 0.21083,0.02067 0.10749,0.02067 0.22325,0.06201 z m 1.20854,0.137804 q -0.21498,0 -0.32384,0.212218 -0.10749,0.210839 -0.10749,0.635275 0,0.423057 0.10749,0.635275 0.10886,0.21084 0.32384,0.21084 0.21635,0 0.32383,-0.21084 0.10887,-0.212218 0.10887,-0.635275 0,-0.424436 -0.10887,-0.635275 -0.10748,-0.212218 -0.32383,-0.212218 z m 0,-0.220486 q 0.34588,0 0.52778,0.274229 0.18328,0.272852 0.18328,0.79375 0,0.51952 -0.18328,0.793749 -0.1819,0.272851 -0.52778,0.272851 -0.34589,0 -0.52917,-0.272851 -0.1819,-0.274229 -0.1819,-0.793749 0,-0.520898 0.1819,-0.79375 0.18328,-0.274229 0.52917,-0.274229 z"
         id="text58-8"
         style="font-size:2.82222px;font-family:'DejaVu Sans';-inkscape-font-specification:'DejaVu Sans';fill:#ffffff;stroke-width:0.7;paint-order:stroke fill markers"
         aria-label="60" /><path
         d="m 411.66163,17.585008 h 1.09279 v 0.234267 h -0.83785 v 0.504361 q 0.0606,-0.02067 0.12127,-0.03032 0.0606,-0.01103 0.12126,-0.01103 0.34451,0 0.54571,0.188791 0.20119,0.188791 0.20119,0.511252 0,0.332107 -0.20671,0.516764 -0.2067,0.183279 -0.58291,0.183279 -0.12953,0 -0.26458,-0.02205 -0.13367,-0.02205 -0.27698,-0.06614 V 19.31444 q 0.12402,0.06752 0.25631,0.100597 0.13229,0.03307 0.27974,0.03307 0.2384,0 0.37758,-0.125402 0.13919,-0.125401 0.13919,-0.340375 0,-0.214974 -0.13919,-0.340375 -0.13918,-0.125401 -0.37758,-0.125401 -0.11162,0 -0.22324,0.0248 -0.11024,0.02481 -0.226,0.07717 z m 2.38814,0.183279 q -0.21497,0 -0.32384,0.212218 -0.10748,0.21084 -0.10748,0.635275 0,0.423058 0.10748,0.635275 0.10887,0.21084 0.32384,0.21084 0.21635,0 0.32384,-0.21084 0.10886,-0.212217 0.10886,-0.635275 0,-0.424435 -0.10886,-0.635275 -0.10749,-0.212218 -0.32384,-0.212218 z m 0,-0.220486 q 0.34589,0 0.52779,0.27423 0.18328,0.272851 0.18328,0.793749 0,0.51952 -0.18328,0.79375 -0.1819,0.272851 -0.52779,0.272851 -0.34589,0 -0.52917,-0.272851 -0.1819,-0.27423 -0.1819,-0.79375 0,-0.520898 0.1819,-0.793749 0.18328,-0.27423 0.52917,-0.27423 z"
         id="text59-3"
         style="font-size:2.82222px;font-family:'DejaVu Sans';-inkscape-font-specification:'DejaVu Sans';fill:#ffffff;stroke-width:0.7;paint-order:stroke fill markers"
         aria-label="50" /><path
         d="m 432.20677,1.2201514 h 0.45475 v -1.56958433 l -0.49471,0.0992187 v -0.25355884 l 0.49196,-0.0992187 h 0.27836 V 1.2201514 h 0.45475 v 0.2342663 h -1.18511 z m 1.79558,0 h 0.45476 v -1.56958433 l -0.49472,0.0992187 v -0.25355884 l 0.49196,-0.0992187 h 0.27836 V 1.2201514 h 0.45476 v 0.2342663 h -1.18512 z m 2.34267,-1.63986422 q -0.21498,0 -0.32384,0.21221772 -0.10749,0.21083968 -0.10749,0.63527513 0,0.4230574 0.10749,0.63527517 0.10886,0.2108396 0.32384,0.2108396 0.21635,0 0.32384,-0.2108396 0.10886,-0.21221777 0.10886,-0.63527517 0,-0.42443545 -0.10886,-0.63527513 -0.10749,-0.21221772 -0.32384,-0.21221772 z m 0,-0.22048595 q 0.34588,0 0.52779,0.2742294 0.18327,0.27285135 0.18327,0.7937494 0,0.51952 -0.18327,0.79374937 -0.18191,0.2728514 -0.52779,0.2728514 -0.34589,0 -0.52917,-0.2728514 -0.1819,-0.27422937 -0.1819,-0.79374937 0,-0.52089805 0.1819,-0.7937494 0.18328,-0.2742294 0.52917,-0.2742294 z"
         id="text66-8"
         style="font-size:2.82222px;font-family:'DejaVu Sans';-inkscape-font-specification:'DejaVu Sans';fill:#ffffff;stroke-width:0.7;paint-order:stroke fill markers"
         aria-label="110" /><path
         d="m 430.2498,4.263288 h 0.45475 V 2.6937037 l -0.49471,0.099219 V 2.5393635 l 0.49196,-0.099219 h 0.27836 V 4.263288 h 0.45475 v 0.2342663 h -1.18511 z m 2.34266,-1.6398642 q -0.21497,0 -0.32383,0.2122177 -0.10749,0.2108397 -0.10749,0.6352751 0,0.4230574 0.10749,0.6352752 0.10886,0.2108396 0.32383,0.2108396 0.21636,0 0.32384,-0.2108396 0.10887,-0.2122178 0.10887,-0.6352752 0,-0.4244354 -0.10887,-0.6352751 -0.10748,-0.2122177 -0.32384,-0.2122177 z m 0,-0.220486 q 0.34589,0 0.52779,0.2742294 0.18328,0.2728514 0.18328,0.7937494 0,0.51952 -0.18328,0.7937494 -0.1819,0.2728514 -0.52779,0.2728514 -0.34588,0 -0.52916,-0.2728514 -0.1819,-0.2742294 -0.1819,-0.7937494 0,-0.520898 0.1819,-0.7937494 0.18328,-0.2742294 0.52916,-0.2742294 z m 1.79559,0.220486 q -0.21498,0 -0.32384,0.2122177 -0.10749,0.2108397 -0.10749,0.6352751 0,0.4230574 0.10749,0.6352752 0.10886,0.2108396 0.32384,0.2108396 0.21635,0 0.32384,-0.2108396 0.10886,-0.2122178 0.10886,-0.6352752 0,-0.4244354 -0.10886,-0.6352751 -0.10749,-0.2122177 -0.32384,-0.2122177 z m 0,-0.220486 q 0.34588,0 0.52779,0.2742294 0.18327,0.2728514 0.18327,0.7937494 0,0.51952 -0.18327,0.7937494 -0.18191,0.2728514 -0.52779,0.2728514 -0.34589,0 -0.52917,-0.2728514 -0.1819,-0.2742294 -0.1819,-0.7937494 0,-0.520898 0.1819,-0.7937494 0.18328,-0.2742294 0.52917,-0.2742294 z"
         id="text67-2"
         style="font-size:2.82222px;font-family:'DejaVu Sans';-inkscape-font-specification:'DejaVu Sans';fill:#ffffff;stroke-width:0.7;paint-order:stroke fill markers"
         aria-label="100" /><path
         d="M 428.94211,7.3222019 V 7.0686431 q 0.10473,0.049609 0.21222,0.075792 0.10748,0.026183 0.21084,0.026183 0.2756,0 0.4203,-0.184657 0.14607,-0.186035 0.16674,-0.5636172 -0.0799,0.1185112 -0.20257,0.1819009 -0.12265,0.06339 -0.27148,0.06339 -0.30868,0 -0.4892,-0.186035 -0.17914,-0.1874131 -0.17914,-0.5112518 0,-0.3169485 0.18741,-0.5084957 0.18741,-0.1915472 0.49885,-0.1915472 0.35691,0 0.54432,0.2742294 0.18879,0.2728514 0.18879,0.7937494 0,0.4864471 -0.23151,0.777213 -0.23013,0.2893878 -0.62011,0.2893878 -0.10473,0 -0.21222,-0.020671 -0.10749,-0.02067 -0.22324,-0.062012 z m 0.55397,-0.8722975 q 0.18741,0 0.29628,-0.1281574 0.11024,-0.1281575 0.11024,-0.3513995 0,-0.221864 -0.11024,-0.3500214 -0.10887,-0.1295355 -0.29628,-0.1295355 -0.18741,0 -0.29766,0.1295355 -0.10886,0.1281574 -0.10886,0.3500214 0,0.223242 0.10886,0.3513995 0.11025,0.1281574 0.29766,0.1281574 z m 1.82865,-0.9591138 q -0.21497,0 -0.32383,0.2122177 -0.10749,0.2108397 -0.10749,0.6352751 0,0.4230574 0.10749,0.6352751 0.10886,0.2108397 0.32383,0.2108397 0.21636,0 0.32384,-0.2108397 0.10887,-0.2122177 0.10887,-0.6352751 0,-0.4244354 -0.10887,-0.6352751 -0.10748,-0.2122177 -0.32384,-0.2122177 z m 0,-0.220486 q 0.34589,0 0.52779,0.2742294 0.18328,0.2728514 0.18328,0.7937494 0,0.51952 -0.18328,0.7937494 -0.1819,0.2728514 -0.52779,0.2728514 -0.34588,0 -0.52916,-0.2728514 -0.1819,-0.2742294 -0.1819,-0.7937494 0,-0.520898 0.1819,-0.7937494 0.18328,-0.2742294 0.52916,-0.2742294 z"
         id="text68-0"
         style="font-size:2.82222px;font-family:'DejaVu Sans';-inkscape-font-specification:'DejaVu Sans';fill:#ffffff;stroke-width:0.7;paint-order:stroke fill markers"
         aria-label="90" /><path
         d="m 429.12037,9.5660682 q -0.19844,0 -0.31282,0.1061089 -0.11299,0.1061088 -0.11299,0.2921438 0,0.1860351 0.11299,0.2921441 0.11438,0.106109 0.31282,0.106109 0.19844,0 0.31281,-0.106109 0.11438,-0.107487 0.11438,-0.2921441 0,-0.186035 -0.11438,-0.2921438 -0.113,-0.1061089 -0.31281,-0.1061089 z M 428.84201,9.447557 q -0.17915,-0.044097 -0.27975,-0.1667425 -0.0992,-0.1226453 -0.0992,-0.2990341 0,-0.2466686 0.17501,-0.3899845 0.17638,-0.1433158 0.48231,-0.1433158 0.3073,0 0.48231,0.1433158 0.17501,0.1433159 0.17501,0.3899845 0,0.1763888 -0.10059,0.2990341 -0.0992,0.1226453 -0.27699,0.1667425 0.20119,0.046853 0.31281,0.1832789 0.113,0.1364257 0.113,0.333485 0,0.2990341 -0.18328,0.4588861 -0.1819,0.159853 -0.52227,0.159853 -0.34038,0 -0.52366,-0.159853 -0.1819,-0.159852 -0.1819,-0.4588861 0,-0.1970593 0.113,-0.333485 0.113,-0.1364256 0.3142,-0.1832789 z m -0.10198,-0.4395938 q 0,0.1598523 0.0992,0.2494247 0.1006,0.089572 0.28112,0.089572 0.17914,0 0.27974,-0.089572 0.10198,-0.089572 0.10198,-0.2494247 0,-0.1598524 -0.10198,-0.2494248 -0.1006,-0.089572 -0.27974,-0.089572 -0.18052,0 -0.28112,0.089572 -0.0992,0.089572 -0.0992,0.2494248 z m 2.17592,-0.3389972 q -0.21497,0 -0.32384,0.2122177 -0.10748,0.2108397 -0.10748,0.6352752 0,0.4230574 0.10748,0.6352751 0.10887,0.21084 0.32384,0.21084 0.21635,0 0.32384,-0.21084 0.10886,-0.2122177 0.10886,-0.6352751 0,-0.4244355 -0.10886,-0.6352752 Q 431.1323,8.668966 430.91595,8.668966 Z m 0,-0.2204859 q 0.34589,0 0.52779,0.2742294 0.18328,0.2728513 0.18328,0.7937494 0,0.5195201 -0.18328,0.7937491 -0.1819,0.272852 -0.52779,0.272852 -0.34589,0 -0.52917,-0.272852 -0.1819,-0.274229 -0.1819,-0.7937491 0,-0.5208981 0.1819,-0.7937494 0.18328,-0.2742294 0.52917,-0.2742294 z"
         id="text69-1"
         style="font-size:2.82222px;font-family:'DejaVu Sans';-inkscape-font-specification:'DejaVu Sans';fill:#ffffff;stroke-width:0.7;paint-order:stroke fill markers"
         aria-label="80" /><path
         d="m 428.86356,11.55349 h 1.32292 v 0.118512 l -0.7469,1.938898 h -0.29077 l 0.7028,-1.823143 h -0.98805 z m 2.46117,0.183279 q -0.21497,0 -0.32383,0.212218 -0.10749,0.21084 -0.10749,0.635275 0,0.423058 0.10749,0.635275 0.10886,0.21084 0.32383,0.21084 0.21636,0 0.32384,-0.21084 0.10887,-0.212217 0.10887,-0.635275 0,-0.424435 -0.10887,-0.635275 -0.10748,-0.212218 -0.32384,-0.212218 z m 0,-0.220486 q 0.34589,0 0.52779,0.27423 0.18328,0.272851 0.18328,0.793749 0,0.51952 -0.18328,0.79375 -0.1819,0.272851 -0.52779,0.272851 -0.34588,0 -0.52916,-0.272851 -0.1819,-0.27423 -0.1819,-0.79375 0,-0.520898 0.1819,-0.793749 0.18328,-0.27423 0.52916,-0.27423 z"
         id="text70-0"
         style="font-size:2.82222px;font-family:'DejaVu Sans';-inkscape-font-specification:'DejaVu Sans';fill:#ffffff;stroke-width:0.7;paint-order:stroke fill markers"
         aria-label="70" /><path
         d="m 430.94434,15.464543 q -0.18741,0 -0.29766,0.128157 -0.10886,0.128158 -0.10886,0.3514 0,0.221864 0.10886,0.351399 0.11025,0.128158 0.29766,0.128158 0.18741,0 0.29628,-0.128158 0.11024,-0.129535 0.11024,-0.351399 0,-0.223242 -0.11024,-0.3514 -0.10887,-0.128157 -0.29628,-0.128157 z m 0.55259,-0.872298 v 0.253559 q -0.10473,-0.04961 -0.21221,-0.07579 -0.10611,-0.02618 -0.21084,-0.02618 -0.27561,0 -0.42168,0.186035 -0.1447,0.186035 -0.16537,0.562239 0.0813,-0.119889 0.20395,-0.183279 0.12265,-0.06477 0.2701,-0.06477 0.31005,0 0.4892,0.188791 0.18052,0.187413 0.18052,0.511252 0,0.316948 -0.18741,0.508495 -0.18741,0.191547 -0.49885,0.191547 -0.35691,0 -0.5457,-0.272851 -0.18879,-0.274229 -0.18879,-0.793749 0,-0.487825 0.23151,-0.777213 0.23151,-0.290766 0.62149,-0.290766 0.10473,0 0.21084,0.02067 0.10749,0.02067 0.22324,0.06201 z m 1.20854,0.137804 q -0.21497,0 -0.32384,0.212218 -0.10748,0.210839 -0.10748,0.635275 0,0.423057 0.10748,0.635275 0.10887,0.21084 0.32384,0.21084 0.21635,0 0.32384,-0.21084 0.10887,-0.212218 0.10887,-0.635275 0,-0.424436 -0.10887,-0.635275 -0.10749,-0.212218 -0.32384,-0.212218 z m 0,-0.220486 q 0.34589,0 0.52779,0.274229 0.18328,0.272852 0.18328,0.79375 0,0.51952 -0.18328,0.793749 -0.1819,0.272851 -0.52779,0.272851 -0.34589,0 -0.52916,-0.272851 -0.18191,-0.274229 -0.18191,-0.793749 0,-0.520898 0.18191,-0.79375 0.18327,-0.274229 0.52916,-0.274229 z"
         id="text71-5"
         style="font-size:2.82222px;font-family:'DejaVu Sans';-inkscape-font-specification:'DejaVu Sans';fill:#ffffff;stroke-width:0.7;paint-order:stroke fill markers"
         aria-label="60" /><path
         d="m 432.25361,17.585008 h 1.09279 v 0.234267 h -0.83785 v 0.504361 q 0.0606,-0.02067 0.12127,-0.03032 0.0606,-0.01103 0.12126,-0.01103 0.34451,0 0.54571,0.188791 0.20119,0.188791 0.20119,0.511252 0,0.332107 -0.20671,0.516764 -0.2067,0.183279 -0.58291,0.183279 -0.12953,0 -0.26458,-0.02205 -0.13367,-0.02205 -0.27698,-0.06614 V 19.31444 q 0.12402,0.06752 0.25631,0.100597 0.13229,0.03307 0.27974,0.03307 0.2384,0 0.37758,-0.125402 0.13919,-0.125401 0.13919,-0.340375 0,-0.214974 -0.13919,-0.340375 -0.13918,-0.125401 -0.37758,-0.125401 -0.11162,0 -0.22324,0.0248 -0.11024,0.02481 -0.226,0.07717 z m 2.38814,0.183279 q -0.21497,0 -0.32384,0.212218 -0.10748,0.21084 -0.10748,0.635275 0,0.423058 0.10748,0.635275 0.10887,0.21084 0.32384,0.21084 0.21635,0 0.32384,-0.21084 0.10886,-0.212217 0.10886,-0.635275 0,-0.424435 -0.10886,-0.635275 -0.10749,-0.212218 -0.32384,-0.212218 z m 0,-0.220486 q 0.34589,0 0.52779,0.27423 0.18328,0.272851 0.18328,0.793749 0,0.51952 -0.18328,0.79375 -0.1819,0.272851 -0.52779,0.272851 -0.34589,0 -0.52917,-0.272851 -0.1819,-0.27423 -0.1819,-0.79375 0,-0.520898 0.1819,-0.793749 0.18328,-0.27423 0.52917,-0.27423 z"
         id="text72-6"
         style="font-size:2.82222px;font-family:'DejaVu Sans';-inkscape-font-specification:'DejaVu Sans';fill:#ffffff;stroke-width:0.7;paint-order:stroke fill markers"
         aria-label="50" /></g></g></svg>
