<?xml version="1.0" encoding="UTF-8" standalone="no"?>
<!-- Created with Inkscape (http://www.inkscape.org/) -->

<svg
   width="54.321445mm"
   height="54.321426mm"
   viewBox="0 0 54.321445 54.321426"
   version="1.1"
   id="svg1"
   xml:space="preserve"
   xmlns="http://www.w3.org/2000/svg"
   xmlns:svg="http://www.w3.org/2000/svg"><defs
     id="defs1" /><g
     id="layer15"
     transform="translate(-251.28494,95.904139)"><g
       id="g137"
       style="display:inline"><circle
         style="display:inline;fill:#151d28;fill-opacity:1;stroke:#151d28;stroke-width:3.677;stroke-dasharray:none;stroke-opacity:1;paint-order:stroke fill markers"
         id="circle125"
         cx="278.44565"
         cy="-68.743423"
         r="25.322214" /><path
         style="display:inline;fill:none;stroke:#ffffff;stroke-width:0.675162;stroke-dasharray:none;stroke-opacity:1;paint-order:stroke fill markers"
         id="path125"
         d="m 274.34106,68.88726 h -5.39692 m -0.96722,15.370134 -3.92386,-3.680535 M 253.117,91.665431 252.68321,86.321376 m -15.37555,0.116512 3.41922,-4.1492 m -11.82077,-10.150119 5.27321,-0.849599 m -5.2732,-5.65309 5.27321,0.849618 m 3.12839,-15.148917 3.41921,4.149212 m 12.39015,-9.376697 -0.43382,5.344053 m 15.29372,2.064037 -3.92387,3.680522 m 10.28795,11.689626 -5.39692,-1.9e-5"
         transform="matrix(-1.0376298,0,0,1.0376298,539.5249,-140.2229)" /><path
         d="m 275.49431,-83.056197 h 0.68213 v -2.354376 l -0.74207,0.148828 v -0.380339 l 0.73794,-0.148828 h 0.41754 v 2.734715 h 0.68213 v 0.351399 h -1.77767 z m 3.514,-2.459796 q -0.32247,0 -0.48576,0.318326 -0.16123,0.31626 -0.16123,0.952913 0,0.634586 0.16123,0.952912 0.16329,0.31626 0.48576,0.31626 0.32452,0 0.48575,-0.31626 0.1633,-0.318326 0.1633,-0.952912 0,-0.636653 -0.1633,-0.952913 -0.16123,-0.318326 -0.48575,-0.318326 z m 0,-0.330729 q 0.51883,0 0.79168,0.411344 0.27492,0.409277 0.27492,1.190624 0,0.77928 -0.27492,1.190624 -0.27285,0.409277 -0.79168,0.409277 -0.51884,0 -0.79375,-0.409277 -0.27286,-0.411344 -0.27286,-1.190624 0,-0.781347 0.27286,-1.190624 0.27491,-0.411344 0.79375,-0.411344 z"
         id="text125"
         style="font-size:4.23333px;font-family:'DejaVu Sans';-inkscape-font-specification:'DejaVu Sans';fill:#ffffff;stroke-width:1.32574;paint-order:stroke fill markers"
         aria-label="10" /><path
         d="m 266.68489,-80.412101 h 1.63917 v 0.3514 h -1.25677 v 0.756542 q 0.0909,-0.03101 0.1819,-0.04547 0.091,-0.01654 0.1819,-0.01654 0.51677,0 0.81856,0.283187 0.30179,0.283187 0.30179,0.766878 0,0.49816 -0.31006,0.775145 -0.31006,0.274919 -0.87436,0.274919 -0.19431,0 -0.39688,-0.03307 -0.2005,-0.03307 -0.41548,-0.09922 v -0.419612 q 0.18604,0.101286 0.38447,0.150895 0.19844,0.04961 0.41962,0.04961 0.3576,0 0.56637,-0.188102 0.20877,-0.188102 0.20877,-0.510563 0,-0.322461 -0.20877,-0.510563 -0.20877,-0.188102 -0.56637,-0.188102 -0.16743,0 -0.33487,0.03721 -0.16536,0.03721 -0.33899,0.115755 z"
         id="text126"
         style="font-size:4.23333px;font-family:'DejaVu Sans';-inkscape-font-specification:'DejaVu Sans';fill:#ffffff;stroke-width:1.32574;paint-order:stroke fill markers"
         aria-label="5" /><path
         d="m 262.56454,-70.086794 q -0.32247,0 -0.48576,0.318326 -0.16123,0.31626 -0.16123,0.952913 0,0.634586 0.16123,0.952913 0.16329,0.316259 0.48576,0.316259 0.32452,0 0.48575,-0.316259 0.1633,-0.318327 0.1633,-0.952913 0,-0.636653 -0.1633,-0.952913 -0.16123,-0.318326 -0.48575,-0.318326 z m 0,-0.330729 q 0.51883,0 0.79168,0.411344 0.27492,0.409277 0.27492,1.190624 0,0.77928 -0.27492,1.190624 -0.27285,0.409277 -0.79168,0.409277 -0.51884,0 -0.79375,-0.409277 -0.27286,-0.411344 -0.27286,-1.190624 0,-0.781347 0.27286,-1.190624 0.27491,-0.411344 0.79375,-0.411344 z"
         id="text127"
         style="font-size:4.23333px;font-family:'DejaVu Sans';-inkscape-font-specification:'DejaVu Sans';fill:#ffffff;stroke-width:1.32574;paint-order:stroke fill markers"
         aria-label="0" /><path
         d="m 266.68489,-60.428088 h 1.63917 v 0.351399 h -1.25677 v 0.756542 q 0.0909,-0.03101 0.1819,-0.04547 0.091,-0.01654 0.1819,-0.01654 0.51677,0 0.81856,0.283186 0.30179,0.283187 0.30179,0.766878 0,0.49816 -0.31006,0.775146 -0.31006,0.274918 -0.87436,0.274918 -0.19431,0 -0.39688,-0.03307 -0.2005,-0.03307 -0.41548,-0.09922 v -0.419613 q 0.18604,0.101286 0.38447,0.150895 0.19844,0.04961 0.41962,0.04961 0.3576,0 0.56637,-0.188102 0.20877,-0.188102 0.20877,-0.510563 0,-0.322461 -0.20877,-0.510563 -0.20877,-0.188102 -0.56637,-0.188102 -0.16743,0 -0.33487,0.03721 -0.16536,0.03721 -0.33899,0.115755 z"
         id="text128"
         style="font-size:4.23333px;font-family:'DejaVu Sans';-inkscape-font-specification:'DejaVu Sans';fill:#ffffff;stroke-width:1.32574;paint-order:stroke fill markers"
         aria-label="5" /><path
         d="m 275.49431,-52.223033 h 0.68213 v -2.354376 l -0.74207,0.148828 v -0.380339 l 0.73794,-0.148828 h 0.41754 v 2.734715 h 0.68213 v 0.351399 h -1.77767 z m 3.514,-2.459796 q -0.32247,0 -0.48576,0.318326 -0.16123,0.31626 -0.16123,0.952913 0,0.634586 0.16123,0.952913 0.16329,0.316259 0.48576,0.316259 0.32452,0 0.48575,-0.316259 0.1633,-0.318327 0.1633,-0.952913 0,-0.636653 -0.1633,-0.952913 -0.16123,-0.318326 -0.48575,-0.318326 z m 0,-0.330729 q 0.51883,0 0.79168,0.411344 0.27492,0.409277 0.27492,1.190624 0,0.77928 -0.27492,1.190624 -0.27285,0.409277 -0.79168,0.409277 -0.51884,0 -0.79375,-0.409277 -0.27286,-0.411344 -0.27286,-1.190624 0,-0.781347 0.27286,-1.190624 0.27491,-0.411344 0.79375,-0.411344 z"
         id="text129"
         style="font-size:4.23333px;font-family:'DejaVu Sans';-inkscape-font-specification:'DejaVu Sans';fill:#ffffff;stroke-width:1.32574;paint-order:stroke fill markers"
         aria-label="10" /><path
         d="m 285.17531,-55.86193 h 0.68213 v -2.354376 l -0.74207,0.148828 v -0.380339 l 0.73793,-0.148828 h 0.41755 v 2.734715 h 0.68213 v 0.351399 h -1.77767 z m 2.62516,-2.734715 h 1.63918 v 0.3514 h -1.25677 v 0.756542 q 0.091,-0.03101 0.1819,-0.04548 0.091,-0.01654 0.1819,-0.01654 0.51676,0 0.81855,0.283186 0.30179,0.283187 0.30179,0.766878 0,0.49816 -0.31006,0.775146 -0.31005,0.274918 -0.87436,0.274918 -0.1943,0 -0.39688,-0.03307 -0.2005,-0.03307 -0.41547,-0.09922 v -0.419612 q 0.18603,0.101286 0.38447,0.150895 0.19844,0.04961 0.41961,0.04961 0.3576,0 0.56637,-0.188102 0.20878,-0.188103 0.20878,-0.510563 0,-0.322461 -0.20878,-0.510563 -0.20877,-0.188102 -0.56637,-0.188102 -0.16743,0 -0.33486,0.03721 -0.16537,0.03721 -0.339,0.115755 z"
         id="text130"
         style="font-size:4.23333px;font-family:'DejaVu Sans';-inkscape-font-specification:'DejaVu Sans';fill:#ffffff;stroke-width:1.32574;paint-order:stroke fill markers"
         aria-label="15" /><path
         d="m 291.13585,-64.212104 h 1.45727 v 0.351399 h -1.95957 v -0.351399 q 0.23772,-0.24598 0.64699,-0.659391 0.41135,-0.415478 0.51677,-0.535367 0.2005,-0.225309 0.27905,-0.380338 0.0806,-0.157097 0.0806,-0.307992 0,-0.245979 -0.17363,-0.401008 -0.17156,-0.15503 -0.44855,-0.15503 -0.19637,0 -0.41548,0.06821 -0.21704,0.06821 -0.46508,0.206706 v -0.421679 q 0.25218,-0.101286 0.47128,-0.152963 0.21911,-0.05168 0.40101,-0.05168 0.47956,0 0.76481,0.239778 0.28526,0.239779 0.28526,0.640788 0,0.190169 -0.0724,0.361734 -0.0703,0.169499 -0.25838,0.401009 -0.0517,0.05994 -0.32866,0.347266 -0.27699,0.285253 -0.78135,0.79995 z m 3.22667,-2.459796 q -0.32246,0 -0.48576,0.318326 -0.16123,0.31626 -0.16123,0.952913 0,0.634586 0.16123,0.952913 0.1633,0.316259 0.48576,0.316259 0.32453,0 0.48576,-0.316259 0.1633,-0.318327 0.1633,-0.952913 0,-0.636653 -0.1633,-0.952913 -0.16123,-0.318326 -0.48576,-0.318326 z m 0,-0.330729 q 0.51883,0 0.79169,0.411344 0.27491,0.409277 0.27491,1.190624 0,0.77928 -0.27491,1.190624 -0.27286,0.409277 -0.79169,0.409277 -0.51883,0 -0.79375,-0.409277 -0.27285,-0.411344 -0.27285,-1.190624 0,-0.781347 0.27285,-1.190624 0.27492,-0.411344 0.79375,-0.411344 z"
         id="text131"
         style="font-size:4.23333px;font-family:'DejaVu Sans';-inkscape-font-specification:'DejaVu Sans';fill:#ffffff;stroke-width:1.32574;paint-order:stroke fill markers"
         aria-label="20" /><path
         d="m 291.13588,-71.368525 h 1.45727 v 0.351399 h -1.95956 v -0.351399 q 0.23771,-0.24598 0.64698,-0.659391 0.41135,-0.415478 0.51677,-0.535367 0.2005,-0.225309 0.27905,-0.380339 0.0806,-0.157096 0.0806,-0.307991 0,-0.24598 -0.17364,-0.401009 -0.17156,-0.155029 -0.44855,-0.155029 -0.19637,0 -0.41548,0.06821 -0.21704,0.06821 -0.46508,0.206706 v -0.42168 q 0.25218,-0.101286 0.47128,-0.152962 0.21911,-0.05168 0.40101,-0.05168 0.47956,0 0.76481,0.239779 0.28526,0.239778 0.28526,0.640787 0,0.190169 -0.0723,0.361735 -0.0703,0.169498 -0.25838,0.401008 -0.0517,0.05994 -0.32866,0.347266 -0.27699,0.285253 -0.78135,0.79995 z m 3.22667,-2.459796 q -0.32246,0 -0.48575,0.318326 -0.16124,0.31626 -0.16124,0.952913 0,0.634586 0.16124,0.952912 0.16329,0.31626 0.48575,0.31626 0.32453,0 0.48576,-0.31626 0.1633,-0.318326 0.1633,-0.952912 0,-0.636653 -0.1633,-0.952913 -0.16123,-0.318326 -0.48576,-0.318326 z m 0,-0.330729 q 0.51883,0 0.79169,0.411344 0.27491,0.409277 0.27491,1.190624 0,0.77928 -0.27491,1.190624 -0.27286,0.409277 -0.79169,0.409277 -0.51883,0 -0.79375,-0.409277 -0.27285,-0.411344 -0.27285,-1.190624 0,-0.781347 0.27285,-1.190624 0.27492,-0.411344 0.79375,-0.411344 z"
         id="text132"
         style="font-size:4.23333px;font-family:'DejaVu Sans';-inkscape-font-specification:'DejaVu Sans';fill:#ffffff;stroke-width:1.32574;paint-order:stroke fill markers"
         aria-label="20" /><path
         d="m 285.17531,-78.485644 h 0.68213 v -2.354377 l -0.74207,0.148828 v -0.380338 l 0.73793,-0.148828 h 0.41755 v 2.734715 h 0.68213 v 0.351399 h -1.77767 z m 2.62516,-2.734715 h 1.63918 v 0.351399 h -1.25677 v 0.756543 q 0.091,-0.03101 0.1819,-0.04548 0.091,-0.01654 0.1819,-0.01654 0.51676,0 0.81855,0.283187 0.30179,0.283186 0.30179,0.766877 0,0.498161 -0.31006,0.775146 -0.31005,0.274919 -0.87436,0.274919 -0.1943,0 -0.39688,-0.03307 -0.2005,-0.03307 -0.41547,-0.09922 v -0.419612 q 0.18603,0.101285 0.38447,0.150895 0.19844,0.04961 0.41961,0.04961 0.3576,0 0.56637,-0.188102 0.20878,-0.188102 0.20878,-0.510563 0,-0.322461 -0.20878,-0.510563 -0.20877,-0.188102 -0.56637,-0.188102 -0.16743,0 -0.33486,0.03721 -0.16537,0.03721 -0.339,0.115755 z"
         id="text133"
         style="font-size:4.23333px;font-family:'DejaVu Sans';-inkscape-font-specification:'DejaVu Sans';fill:#ffffff;stroke-width:1.32574;paint-order:stroke fill markers"
         aria-label="15" /><path
         style="display:inline;fill:#4f8fba;fill-opacity:1;stroke:none;stroke-width:1;stroke-dasharray:none;stroke-opacity:1;paint-order:stroke fill markers"
         id="path133"
         d="m 242.40896,64.664827 -7.84227,0 3.92113,-6.791604 z"
         transform="matrix(0.20291393,0.05437062,-0.14609824,0.54524607,228.13767,-118.28783)" /><path
         style="display:inline;fill:#a53030;fill-opacity:1;stroke:none;stroke-width:1;stroke-dasharray:none;stroke-opacity:1;paint-order:stroke fill markers"
         id="path134"
         d="m 242.40896,64.664827 -7.84227,0 3.92113,-6.791604 z"
         transform="matrix(-0.20291393,0.05437062,-0.14609824,-0.54524607,324.92267,-45.261249)" /><circle
         style="display:inline;fill:#ffffff;fill-opacity:1;stroke:none;stroke-width:0.0796741;stroke-dasharray:none;stroke-opacity:1;paint-order:stroke fill markers"
         id="circle137"
         cx="278.44565"
         cy="-68.743423"
         r="0.3073639" /><g
         id="text137"
         style="font-size:2.82222px;font-family:'DejaVu Sans';-inkscape-font-specification:'DejaVu Sans';fill:#ffffff;paint-order:stroke fill markers"
         aria-label="100 FEET&#10;PER MIN"
         transform="translate(1.1633435,-79.865965)"><path
           d="m 270.89098,5.5873503 h 0.45475 V 4.017766 l -0.49472,0.099219 V 3.8634259 l 0.49196,-0.099219 h 0.27837 V 5.58735 h 0.45475 v 0.2342663 h -1.18511 z m 2.34266,-1.6398642 q -0.21497,0 -0.32384,0.2122177 -0.10749,0.2108397 -0.10749,0.6352752 0,0.4230574 0.10749,0.6352751 0.10887,0.2108397 0.32384,0.2108397 0.21635,0 0.32384,-0.2108397 0.10886,-0.2122177 0.10886,-0.6352751 0,-0.4244355 -0.10886,-0.6352752 -0.10749,-0.2122177 -0.32384,-0.2122177 z m 0,-0.2204859 q 0.34589,0 0.52779,0.2742294 0.18328,0.2728513 0.18328,0.7937494 0,0.51952 -0.18328,0.7937494 -0.1819,0.2728513 -0.52779,0.2728513 -0.34589,0 -0.52917,-0.2728513 -0.1819,-0.2742294 -0.1819,-0.7937494 0,-0.5208981 0.1819,-0.7937494 0.18328,-0.2742294 0.52917,-0.2742294 z m 1.79558,0.2204859 q -0.21497,0 -0.32384,0.2122177 -0.10748,0.2108397 -0.10748,0.6352752 0,0.4230574 0.10748,0.6352751 0.10887,0.2108397 0.32384,0.2108397 0.21635,0 0.32384,-0.2108397 0.10887,-0.2122177 0.10887,-0.6352751 0,-0.4244355 -0.10887,-0.6352752 -0.10749,-0.2122177 -0.32384,-0.2122177 z m 0,-0.2204859 q 0.34589,0 0.52779,0.2742294 0.18328,0.2728513 0.18328,0.7937494 0,0.51952 -0.18328,0.7937494 -0.1819,0.2728513 -0.52779,0.2728513 -0.34589,0 -0.52916,-0.2728513 -0.18191,-0.2742294 -0.18191,-0.7937494 0,-0.5208981 0.18191,-0.7937494 0.18327,-0.2742294 0.52916,-0.2742294 z m 2.07257,0.037207 h 1.18236 v 0.2342663 h -0.904 v 0.6063363 h 0.8158 v 0.2342664 h -0.8158 v 0.9825404 h -0.27836 z m 1.62333,0 h 1.30086 v 0.2342663 h -1.0225 v 0.6090924 h 0.97978 v 0.2342663 h -0.97978 v 0.7455181 h 1.04731 v 0.2342663 h -1.32567 z m 1.78318,0 h 1.30086 v 0.2342663 h -1.0225 v 0.6090924 h 0.97979 v 0.2342663 h -0.97979 v 0.7455181 h 1.04731 v 0.2342663 h -1.32567 z m 1.49792,0 h 1.74046 v 0.2342663 h -0.73035 v 1.8231431 h -0.27975 V 3.9984735 h -0.73036 z"
           id="path138" /><path
           d="m 271.0963,7.5207365 v 0.7730788 h 0.35002 q 0.19431,0 0.30042,-0.1005967 0.10611,-0.1005967 0.10611,-0.2866317 0,-0.184657 -0.10611,-0.2852537 -0.10611,-0.1005967 -0.30042,-0.1005967 z m -0.27836,-0.2287542 h 0.62838 q 0.34589,0 0.52228,0.1570962 0.17777,0.1557182 0.17777,0.4575084 0,0.3045462 -0.17777,0.4602644 -0.17639,0.1557182 -0.52228,0.1557182 h -0.35002 v 0.8268223 h -0.27836 z m 1.70188,0 h 1.30086 v 0.2342663 h -1.0225 V 8.135341 h 0.97978 v 0.2342663 h -0.97978 v 0.7455181 h 1.04731 v 0.2342664 h -1.32567 z m 2.75883,1.0927835 q 0.0896,0.030317 0.17363,0.1295354 0.0854,0.099219 0.17088,0.2728514 l 0.28249,0.5622392 h -0.29903 l -0.26321,-0.5277883 q -0.10197,-0.2067055 -0.19843,-0.2742294 -0.0951,-0.067524 -0.26045,-0.067524 h -0.30317 V 9.3493918 H 274.303 V 7.2919823 h 0.62838 q 0.35278,0 0.52641,0.14745 0.17363,0.1474499 0.17363,0.445106 0,0.1943032 -0.0909,0.3224607 -0.0896,0.1281574 -0.26182,0.1777668 z m -0.69729,-0.8640293 v 0.7303596 h 0.35002 q 0.20119,0 0.30317,-0.092328 0.10335,-0.093707 0.10335,-0.2742294 0,-0.1805229 -0.10335,-0.2714734 -0.10198,-0.092328 -0.30317,-0.092328 z m 2.57969,-0.2287542 h 0.41478 l 0.52504,1.4000857 0.52778,-1.4000857 h 0.41479 v 2.0574095 h -0.27147 V 7.5427851 l -0.53054,1.41111 h -0.27975 l -0.53054,-1.41111 v 1.8066067 h -0.27009 z m 2.43499,0 h 0.27836 v 2.0574095 h -0.27836 z m 0.83233,0 h 0.37483 l 0.91226,1.7211684 V 7.2919823 h 0.27009 v 2.0574095 h -0.37482 l -0.91226,-1.7211684 v 1.7211684 h -0.2701 z"
           id="path139" /></g></g></g></svg>
