<?xml version="1.0" encoding="UTF-8" standalone="no"?>
<!-- Created with Inkscape (http://www.inkscape.org/) -->

<svg
   width="54.321426mm"
   height="54.321426mm"
   viewBox="0 0 54.321426 54.321426"
   version="1.1"
   id="svg1"
   xml:space="preserve"
   xmlns="http://www.w3.org/2000/svg"
   xmlns:svg="http://www.w3.org/2000/svg"><defs
     id="defs1" /><g
     id="layer3"
     transform="translate(-260.6712,20.842564)"><circle
       style="display:inline;fill:#151d28;fill-opacity:1;stroke:#151d28;stroke-width:3.677;stroke-dasharray:none;stroke-opacity:1;paint-order:stroke fill markers"
       id="path9-0"
       cx="287.83191"
       cy="6.3181496"
       r="25.322214" /><path
       style="display:inline;fill:none;stroke:#ffffff;stroke-width:0.675162;stroke-dasharray:none;stroke-opacity:1;paint-order:stroke fill markers"
       id="path8-9"
       d="m 274.34106,68.88726 h -5.39692 m -0.96722,15.370134 -3.92386,-3.680535 M 253.117,91.665431 252.68321,86.321376 m -15.37555,0.116512 3.41922,-4.1492 m -11.82077,-10.150119 5.27321,-0.849599 m -5.2732,-5.65309 5.27321,0.849618 m 3.12839,-15.148917 3.41921,4.149212 m 12.39015,-9.376697 -0.43382,5.344053 m 15.29372,2.064037 -3.92387,3.680522 m 10.28795,11.689626 -5.39692,-1.9e-5"
       transform="matrix(-1.0376298,0,0,1.0376298,548.91116,-65.161327)" /><path
       d="m 284.87757,-7.9926218 h 0.67825 v -2.3409732 l -0.73785,0.147981 v -0.378173 l 0.73374,-0.147981 h 0.41517 v 2.7191462 h 0.67824 v 0.349399 h -1.76755 z m 3.49399,-2.4457932 q -0.32062,0 -0.48299,0.316515 -0.16031,0.3144589 -0.16031,0.9474876 0,0.6309734 0.16031,0.9474878 0.16237,0.3144591 0.48299,0.3144591 0.32268,0 0.483,-0.3144591 0.16236,-0.3165144 0.16236,-0.9474878 0,-0.6330287 -0.16236,-0.9474876 -0.16032,-0.316515 -0.483,-0.316515 z m 0,-0.328846 q 0.51588,0 0.78718,0.409003 0.27335,0.4069467 0.27335,1.1838456 0,0.7748436 -0.27335,1.1838459 -0.2713,0.406947 -0.78718,0.406947 -0.51587,0 -0.78923,-0.406947 -0.2713,-0.4090023 -0.2713,-1.1838459 0,-0.7768989 0.2713,-1.1838456 0.27336,-0.409003 0.78923,-0.409003 z"
       id="text11-63"
       style="font-size:4.20923px;font-family:'DejaVu Sans';-inkscape-font-specification:'DejaVu Sans';fill:#ffffff;stroke-width:1.32574;paint-order:stroke fill markers"
       aria-label="10" /><path
       d="m 276.06854,-5.3329568 h 1.62984 v 0.349399 h -1.24961 v 0.7522354 q 0.0904,-0.030829 0.18086,-0.045216 0.0904,-0.016442 0.18087,-0.016442 0.51382,0 0.81389,0.2815745 0.30007,0.2815744 0.30007,0.7625118 0,0.4953245 -0.30829,0.7707331 -0.30829,0.2733533 -0.86939,0.2733533 -0.19319,0 -0.39461,-0.032885 -0.19937,-0.032885 -0.41312,-0.098654 v -0.4172234 q 0.18498,0.1007091 0.38229,0.150036 0.19731,0.049327 0.41722,0.049327 0.35557,0 0.56315,-0.1870312 0.20758,-0.1870312 0.20758,-0.5076562 0,-0.3206249 -0.20758,-0.5076561 -0.20758,-0.1870312 -0.56315,-0.1870312 -0.16648,0 -0.33296,0.036995 -0.16442,0.036995 -0.33706,0.1150961 z"
       id="text11-6-5"
       style="font-size:4.20923px;font-family:'DejaVu Sans';-inkscape-font-specification:'DejaVu Sans';fill:#ffffff;stroke-width:1.32574;paint-order:stroke fill markers"
       aria-label="5" /><path
       d="m 271.94313,4.9907846 q -0.32063,0 -0.483,0.3165144 -0.16031,0.3144591 -0.16031,0.9474878 0,0.6309734 0.16031,0.9474878 0.16237,0.3144591 0.483,0.3144591 0.32268,0 0.48299,-0.3144591 0.16237,-0.3165144 0.16237,-0.9474878 0,-0.6330287 -0.16237,-0.9474878 -0.16031,-0.3165144 -0.48299,-0.3165144 z m 0,-0.328846 q 0.51587,0 0.78717,0.4090023 0.27335,0.406947 0.27335,1.1838459 0,0.7748436 -0.27335,1.1838459 -0.2713,0.4069471 -0.78717,0.4069471 -0.51588,0 -0.78924,-0.4069471 -0.27129,-0.4090023 -0.27129,-1.1838459 0,-0.7768989 0.27129,-1.1838459 0.27336,-0.4090023 0.78924,-0.4090023 z"
       id="text11-6-1-1"
       style="font-size:4.20923px;font-family:'DejaVu Sans';-inkscape-font-specification:'DejaVu Sans';fill:#ffffff;stroke-width:1.32574;paint-order:stroke fill markers"
       aria-label="0" /><path
       d="m 276.06854,14.651059 h 1.62984 v 0.349399 h -1.24961 v 0.752236 q 0.0904,-0.03083 0.18086,-0.04522 0.0904,-0.01644 0.18087,-0.01644 0.51382,0 0.81389,0.281575 0.30007,0.281574 0.30007,0.762512 0,0.495324 -0.30829,0.770733 -0.30829,0.273353 -0.86939,0.273353 -0.19319,0 -0.39461,-0.03289 -0.19937,-0.03288 -0.41312,-0.09865 v -0.417223 q 0.18498,0.100709 0.38229,0.150036 0.19731,0.04933 0.41722,0.04933 0.35557,0 0.56315,-0.187031 0.20758,-0.187032 0.20758,-0.507656 0,-0.320625 -0.20758,-0.507657 -0.20758,-0.187031 -0.56315,-0.187031 -0.16648,0 -0.33296,0.03699 -0.16442,0.037 -0.33706,0.115096 z"
       id="text11-6-1-6-5"
       style="font-size:4.20923px;font-family:'DejaVu Sans';-inkscape-font-specification:'DejaVu Sans';fill:#ffffff;stroke-width:1.32574;paint-order:stroke fill markers"
       aria-label="5" /><path
       d="m 284.87757,22.840542 h 0.67825 v -2.340973 l -0.73785,0.147981 v -0.378173 l 0.73374,-0.147981 h 0.41517 v 2.719146 h 0.67824 v 0.349399 h -1.76755 z m 3.49399,-2.445792 q -0.32062,0 -0.48299,0.316514 -0.16031,0.314459 -0.16031,0.947488 0,0.630973 0.16031,0.947488 0.16237,0.314459 0.48299,0.314459 0.32268,0 0.483,-0.314459 0.16236,-0.316515 0.16236,-0.947488 0,-0.633029 -0.16236,-0.947488 -0.16032,-0.316514 -0.483,-0.316514 z m 0,-0.328846 q 0.51588,0 0.78718,0.409002 0.27335,0.406947 0.27335,1.183846 0,0.774843 -0.27335,1.183846 -0.2713,0.406947 -0.78718,0.406947 -0.51587,0 -0.78923,-0.406947 -0.2713,-0.409003 -0.2713,-1.183846 0,-0.776899 0.2713,-1.183846 0.27336,-0.409002 0.78923,-0.409002 z"
       id="text11-6-1-6-7-8"
       style="font-size:4.20923px;font-family:'DejaVu Sans';-inkscape-font-specification:'DejaVu Sans';fill:#ffffff;stroke-width:1.32574;paint-order:stroke fill markers"
       aria-label="10" /><path
       d="m 294.55857,19.201649 h 0.67825 v -2.340973 l -0.73785,0.147981 v -0.378173 l 0.73374,-0.147981 h 0.41517 v 2.719146 h 0.67824 v 0.349399 h -1.76755 z m 2.61022,-2.719146 h 1.62984 v 0.349399 h -1.24961 v 0.752236 q 0.0904,-0.03083 0.18086,-0.04522 0.0904,-0.01644 0.18087,-0.01644 0.51382,0 0.81389,0.281574 0.30007,0.281575 0.30007,0.762512 0,0.495325 -0.30829,0.770733 -0.30829,0.273354 -0.86939,0.273354 -0.19319,0 -0.39461,-0.03289 -0.19936,-0.03289 -0.41311,-0.09865 V 19.06189 q 0.18497,0.100709 0.38228,0.150036 0.19731,0.04933 0.41722,0.04933 0.35557,0 0.56315,-0.187032 0.20759,-0.187031 0.20759,-0.507656 0,-0.320625 -0.20759,-0.507656 -0.20758,-0.187031 -0.56315,-0.187031 -0.16648,0 -0.33295,0.037 -0.16443,0.037 -0.33707,0.115096 z"
       id="text11-6-1-6-7-4-8"
       style="font-size:4.20923px;font-family:'DejaVu Sans';-inkscape-font-specification:'DejaVu Sans';fill:#ffffff;stroke-width:1.32574;paint-order:stroke fill markers"
       aria-label="15" /><path
       d="m 300.51748,10.851475 h 1.44897 v 0.349399 h -1.94841 v -0.349399 q 0.23636,-0.244579 0.64331,-0.655637 0.409,-0.4131124 0.51382,-0.5323191 0.19936,-0.2240264 0.27746,-0.378173 0.0802,-0.1562019 0.0802,-0.306238 0,-0.2445792 -0.17265,-0.3987258 -0.17059,-0.1541467 -0.44599,-0.1541467 -0.19526,0 -0.41312,0.067825 -0.2158,0.067825 -0.46244,0.2055288 V 8.28031 q 0.25075,-0.1007091 0.46861,-0.1520913 0.21786,-0.051382 0.39872,-0.051382 0.47683,0 0.76046,0.2384134 0.28363,0.2384134 0.28363,0.6371393 0,0.1890865 -0.0719,0.3596754 -0.0699,0.1685336 -0.25691,0.3987259 -0.0514,0.059603 -0.3268,0.3452883 -0.2754,0.28363 -0.77689,0.795396 z m 3.2083,-2.4457924 q -0.32062,0 -0.48299,0.3165143 -0.16032,0.3144591 -0.16032,0.9474878 0,0.6309733 0.16032,0.9474883 0.16237,0.314459 0.48299,0.314459 0.32268,0 0.48299,-0.314459 0.16237,-0.316515 0.16237,-0.9474883 0,-0.6330287 -0.16237,-0.9474878 -0.16031,-0.3165143 -0.48299,-0.3165143 z m 0,-0.3288461 q 0.51588,0 0.78718,0.4090023 0.27335,0.406947 0.27335,1.1838459 0,0.7748433 -0.27335,1.1838463 -0.2713,0.406947 -0.78718,0.406947 -0.51588,0 -0.78923,-0.406947 -0.2713,-0.409003 -0.2713,-1.1838463 0,-0.7768989 0.2713,-1.1838459 0.27335,-0.4090023 0.78923,-0.4090023 z"
       id="text11-6-1-6-7-4-0-0"
       style="font-size:4.20923px;font-family:'DejaVu Sans';-inkscape-font-specification:'DejaVu Sans';fill:#ffffff;stroke-width:1.32574;paint-order:stroke fill markers"
       aria-label="20" /><path
       d="m 300.51751,3.6950499 h 1.44897 v 0.349399 h -1.94841 v -0.349399 q 0.23636,-0.2445793 0.64331,-0.6556369 0.409,-0.4131129 0.51382,-0.5323196 0.19936,-0.2240264 0.27746,-0.378173 0.0802,-0.1562019 0.0802,-0.3062379 0,-0.2445793 -0.17265,-0.3987259 -0.17058,-0.1541466 -0.44599,-0.1541466 -0.19526,0 -0.41312,0.067824 -0.2158,0.067824 -0.46244,0.2055288 V 1.1238845 q 0.25075,-0.1007091 0.46861,-0.1520913 0.21786,-0.0513822 0.39873,-0.0513822 0.47682,0 0.76045,0.2384134 0.28363,0.2384134 0.28363,0.6371393 0,0.1890865 -0.0719,0.3596754 -0.0699,0.1685336 -0.25691,0.3987259 -0.0514,0.059603 -0.3268,0.3452884 -0.2754,0.2836298 -0.77689,0.7953965 z m 3.2083,-2.4457928 q -0.32062,0 -0.48299,0.3165144 -0.16031,0.314459 -0.16031,0.9474877 0,0.6309735 0.16031,0.9474878 0.16237,0.3144591 0.48299,0.3144591 0.32268,0 0.48299,-0.3144591 0.16237,-0.3165143 0.16237,-0.9474878 0,-0.6330287 -0.16237,-0.9474877 -0.16031,-0.3165144 -0.48299,-0.3165144 z m 0,-0.3288461 q 0.51588,0 0.78718,0.4090023 0.27335,0.4069471 0.27335,1.1838459 0,0.7748436 -0.27335,1.183846 -0.2713,0.406947 -0.78718,0.406947 -0.51588,0 -0.78923,-0.406947 -0.2713,-0.4090024 -0.2713,-1.183846 0,-0.7768988 0.2713,-1.1838459 0.27335,-0.4090023 0.78923,-0.4090023 z"
       id="text11-6-1-6-7-4-0-8-0"
       style="font-size:4.20923px;font-family:'DejaVu Sans';-inkscape-font-specification:'DejaVu Sans';fill:#ffffff;stroke-width:1.32574;paint-order:stroke fill markers"
       aria-label="20" /><path
       d="m 294.55857,-3.4220687 h 0.67825 v -2.3409731 l -0.73785,0.1479807 v -0.378173 l 0.73374,-0.1479807 h 0.41517 v 2.7191461 h 0.67824 v 0.349399 h -1.76755 z m 2.61022,-2.7191461 h 1.62984 v 0.349399 h -1.24961 v 0.7522354 q 0.0904,-0.030829 0.18086,-0.045216 0.0904,-0.016442 0.18087,-0.016442 0.51382,0 0.81389,0.2815745 0.30007,0.2815745 0.30007,0.7625119 0,0.4953244 -0.30829,0.770733 -0.30829,0.2733533 -0.86939,0.2733533 -0.19319,0 -0.39461,-0.032885 -0.19936,-0.032885 -0.41311,-0.098654 v -0.4172235 q 0.18497,0.1007091 0.38228,0.150036 0.19731,0.049327 0.41722,0.049327 0.35557,0 0.56315,-0.1870312 0.20759,-0.1870312 0.20759,-0.5076561 0,-0.320625 -0.20759,-0.5076562 -0.20758,-0.1870312 -0.56315,-0.1870312 -0.16648,0 -0.33295,0.036995 -0.16443,0.036995 -0.33707,0.1150961 z"
       id="text11-6-1-6-7-4-0-8-9-4"
       style="font-size:4.20923px;font-family:'DejaVu Sans';-inkscape-font-specification:'DejaVu Sans';fill:#ffffff;stroke-width:1.32574;paint-order:stroke fill markers"
       aria-label="15" /><path
       style="display:inline;fill:#4f8fba;fill-opacity:1;stroke:none;stroke-width:1;stroke-dasharray:none;stroke-opacity:1;paint-order:stroke fill markers"
       id="path11-4"
       d="m 242.40896,64.664827 -7.84227,0 3.92113,-6.791604 z"
       transform="matrix(0.20291393,0.05437062,-0.14609824,0.54524607,237.52393,-43.226257)" /><path
       style="display:inline;fill:#a53030;fill-opacity:1;stroke:none;stroke-width:1;stroke-dasharray:none;stroke-opacity:1;paint-order:stroke fill markers"
       id="path11-9-7"
       d="m 242.40896,64.664827 -7.84227,0 3.92113,-6.791604 z"
       transform="matrix(-0.20291393,0.05437062,-0.14609824,-0.54524607,334.30893,29.800327)" /><path
       d="m 278.1628,1.0587182 h 0.17484 v 0.7811759 q 0,0.2067059 0.0749,0.298001 0.0749,0.090434 0.24288,0.090434 0.16708,0 0.24201,-0.090434 0.0749,-0.091295 0.0749,-0.298001 V 1.0587182 h 0.17483 V 1.861426 q 0,0.2514921 -0.12488,0.379822 -0.12402,0.1283299 -0.3669,0.1283299 -0.24374,0 -0.36863,-0.1283299 -0.12402,-0.1283299 -0.12402,-0.379822 z m 1.48483,0.1429716 v 0.4831749 h 0.21877 q 0.12144,0 0.18776,-0.062873 0.0663,-0.062873 0.0663,-0.1791451 0,-0.1154108 -0.0663,-0.1782838 -0.0663,-0.062873 -0.18776,-0.062873 z m -0.17397,-0.1429716 h 0.39274 q 0.21618,0 0.32642,0.098185 0.11111,0.097324 0.11111,0.2859431 0,0.1903416 -0.11111,0.2876656 -0.11024,0.097324 -0.32642,0.097324 h -0.21877 v 0.5167646 h -0.17397 z"
       id="text12-6"
       style="font-size:1.76389px;font-family:'DejaVu Sans';-inkscape-font-specification:'DejaVu Sans';fill:#ffffff;paint-order:stroke fill markers"
       aria-label="UP" /><path
       d="m 278.24159,10.371516 v 0.99994 h 0.21016 q 0.26613,0 0.38929,-0.120579 0.12402,-0.120578 0.12402,-0.380683 0,-0.258382 -0.12402,-0.3781 -0.12316,-0.120578 -0.38929,-0.120578 z m -0.17397,-0.142972 h 0.35743 q 0.37379,0 0.54863,0.155891 0.17484,0.15503 0.17484,0.485759 0,0.332452 -0.1757,0.488343 -0.1757,0.15589 -0.54777,0.15589 h -0.35743 z m 1.35823,0 h 0.23426 l 0.57017,1.075732 v -1.075732 h 0.16881 v 1.285883 h -0.23427 l -0.57016,-1.075732 v 1.075732 h -0.16881 z"
       id="text12-4-1"
       style="font-size:1.76389px;font-family:'DejaVu Sans';-inkscape-font-specification:'DejaVu Sans';fill:#ffffff;paint-order:stroke fill markers"
       aria-label="DN" /><g
       id="text13-5"
       style="font-size:1.76389px;font-family:'DejaVu Sans';-inkscape-font-specification:'DejaVu Sans';fill:#ffffff;paint-order:stroke fill markers"
       aria-label="VERTICAL&#10;SPEED"><path
         d="m 290.36854,1.8177568 -0.49093,-1.28588275 h 0.18173 l 0.40738,1.08262195 0.40825,-1.08262195 h 0.18086 l -0.49006,1.28588275 z m 0.87505,-1.28588275 h 0.81305 V 0.6782907 h -0.63907 V 1.058974 h 0.61237 v 0.1464167 h -0.61237 v 0.4659494 h 0.65457 v 0.1464167 h -0.82855 z m 1.72427,0.68299065 q 0.056,0.018948 0.10852,0.08096 0.0534,0.062012 0.1068,0.1705323 l 0.17656,0.3514 h -0.18689 l -0.16451,-0.3298681 q -0.0637,-0.1291912 -0.12402,-0.1713936 -0.0594,-0.042202 -0.16278,-0.042202 h -0.18948 v 0.5434642 h -0.17398 V 0.53187405 h 0.39274 q 0.22049,0 0.32901,0.0921564 0.10852,0.0921564 0.10852,0.27819164 0,0.12143961 -0.0568,0.20153821 -0.056,0.080099 -0.16365,0.1111044 z m -0.4358,-0.54001909 V 1.1313211 h 0.21876 q 0.12575,0 0.18948,-0.057705 0.0646,-0.058567 0.0646,-0.17139364 0,-0.11282695 -0.0646,-0.16967107 -0.0637,-0.0577054 -0.18948,-0.0577054 z m 0.745,-0.14297156 h 1.08779 V 0.6782907 h -0.45647 v 1.1394661 h -0.17484 V 0.6782907 h -0.45648 z m 1.25574,0 h 0.17398 V 1.8177568 h -0.17398 z m 1.48311,0.0990466 V 0.8143721 q -0.0879,-0.0818211 -0.18775,-0.12230097 -0.0991,-0.0404799 -0.21102,-0.0404799 -0.22048,0 -0.33762,0.13522008 -0.11713,0.13435881 -0.11713,0.38929599 0,0.254076 0.11713,0.3892961 0.11714,0.1343588 0.33762,0.1343588 0.11197,0 0.21102,-0.04048 0.0999,-0.04048 0.18775,-0.122301 v 0.1817289 q -0.0913,0.062012 -0.19378,0.093018 -0.10163,0.031006 -0.21532,0.031006 -0.29197,0 -0.45992,-0.1782838 -0.16795,-0.1791451 -0.16795,-0.4883426 0,-0.31005874 0.16795,-0.48834255 0.16795,-0.17914508 0.45992,-0.17914508 0.11541,0 0.21704,0.0310059 0.10249,0.0301446 0.19206,0.0912947 z m 0.6985,0.072347 -0.23599,0.63992695 h 0.47284 z m -0.0982,-0.17139361 h 0.19723 l 0.49007,1.28588276 h -0.18087 l -0.11713,-0.3298681 h -0.57964 l -0.11713,0.3298681 h -0.18345 z m 0.87506,0 h 0.17397 V 1.6713401 h 0.62615 v 0.1464167 h -0.80012 z"
         id="path20" /><path
         d="m 290.80779,2.778939 v 0.1696711 q -0.0991,-0.04737 -0.1869,-0.070624 -0.0878,-0.023254 -0.16967,-0.023254 -0.14211,0 -0.21963,0.055122 -0.0766,0.055122 -0.0766,0.156752 0,0.085266 0.0508,0.1291912 0.0517,0.043064 0.19464,0.069763 l 0.10508,0.021532 q 0.19465,0.037035 0.2868,0.1309138 0.093,0.093018 0.093,0.2497695 0,0.1868966 -0.12574,0.2833593 -0.12489,0.096463 -0.36691,0.096463 -0.0913,0 -0.19464,-0.020671 -0.1025,-0.020671 -0.21274,-0.06115 V 3.7866301 q 0.10594,0.059428 0.20757,0.089573 0.10163,0.030145 0.19981,0.030145 0.149,0 0.22996,-0.058567 0.081,-0.058567 0.081,-0.1670872 0,-0.09474 -0.0586,-0.1481392 -0.0577,-0.053399 -0.19035,-0.080099 l -0.10593,-0.020671 q -0.19465,-0.038757 -0.28164,-0.1214396 -0.087,-0.082682 -0.087,-0.2299603 0,-0.1705324 0.11972,-0.2687176 0.12058,-0.098185 0.33159,-0.098185 0.0904,0 0.18431,0.016364 0.0939,0.016364 0.19207,0.049093 z m 0.52279,0.1007691 v 0.483175 h 0.21876 q 0.12144,0 0.18776,-0.062873 0.0663,-0.062873 0.0663,-0.1791451 0,-0.1154108 -0.0663,-0.1782838 -0.0663,-0.062873 -0.18776,-0.062873 z M 291.1566,2.7367366 h 0.39274 q 0.21618,0 0.32643,0.098185 0.1111,0.097324 0.1111,0.2859431 0,0.1903416 -0.1111,0.2876656 -0.11025,0.097324 -0.32643,0.097324 h -0.21876 v 0.5167646 h -0.17398 z m 1.06368,0 h 0.81304 v 0.1464166 h -0.63907 v 0.3806833 h 0.61237 v 0.1464167 h -0.61237 v 0.4659495 h 0.65457 v 0.1464166 h -0.82854 z m 1.11449,0 h 0.81304 v 0.1464166 h -0.63907 v 0.3806833 h 0.61237 v 0.1464167 h -0.61237 v 0.4659495 h 0.65457 v 0.1464166 h -0.82854 z m 1.28846,0.1429715 v 0.9999397 h 0.21015 q 0.26614,0 0.3893,-0.1205785 0.12402,-0.1205784 0.12402,-0.3806833 0,-0.2583823 -0.12402,-0.3780994 -0.12316,-0.1205785 -0.3893,-0.1205785 z m -0.17397,-0.1429715 h 0.35742 q 0.3738,0 0.54864,0.1558907 0.17483,0.1550294 0.17483,0.4857587 0,0.332452 -0.1757,0.4883426 -0.1757,0.1558907 -0.54777,0.1558907 h -0.35742 z"
         id="path21" /></g><g
       id="text13-8-2"
       style="font-size:1.76389px;font-family:'DejaVu Sans';-inkscape-font-specification:'DejaVu Sans';fill:#ffffff;paint-order:stroke fill markers"
       aria-label="100 FEET&#10;PER MIN"><path
         d="m 289.92326,9.683341 h 0.28422 V 8.7023495 l -0.30919,0.062012 V 8.6058867 l 0.30747,-0.062012 h 0.17398 v 1.139466 h 0.28422 v 0.1464167 h -0.7407 z m 1.46417,-1.0249165 q -0.13436,0 -0.2024,0.1326362 -0.0672,0.131775 -0.0672,0.3970475 0,0.2644113 0.0672,0.3970476 0.068,0.1317749 0.2024,0.1317749 0.13522,0 0.2024,-0.1317749 0.068,-0.1326363 0.068,-0.3970476 0,-0.2652725 -0.068,-0.3970475 -0.0672,-0.1326362 -0.2024,-0.1326362 z m 0,-0.1378039 q 0.21618,0 0.32987,0.1713936 0.11455,0.1705323 0.11455,0.496094 0,0.3247005 -0.11455,0.4960941 -0.11369,0.1705323 -0.32987,0.1705323 -0.21618,0 -0.33073,-0.1705323 -0.11369,-0.1713936 -0.11369,-0.4960941 0,-0.3255617 0.11369,-0.496094 0.11455,-0.1713936 0.33073,-0.1713936 z m 1.12224,0.1378039 q -0.13436,0 -0.2024,0.1326362 -0.0672,0.131775 -0.0672,0.3970475 0,0.2644113 0.0672,0.3970476 0.068,0.1317749 0.2024,0.1317749 0.13522,0 0.2024,-0.1317749 0.068,-0.1326363 0.068,-0.3970476 0,-0.2652725 -0.068,-0.3970475 -0.0672,-0.1326362 -0.2024,-0.1326362 z m 0,-0.1378039 q 0.21618,0 0.32987,0.1713936 0.11455,0.1705323 0.11455,0.496094 0,0.3247005 -0.11455,0.4960941 -0.11369,0.1705323 -0.32987,0.1705323 -0.21618,0 -0.33073,-0.1705323 -0.11369,-0.1713936 -0.11369,-0.4960941 0,-0.3255617 0.11369,-0.496094 0.11455,-0.1713936 0.33073,-0.1713936 z m 1.29536,0.023254 h 0.73897 v 0.1464166 h -0.565 V 9.069252 h 0.50988 V 9.215669 H 293.979 v 0.6140887 h -0.17397 z m 1.01458,0 h 0.81304 v 0.1464166 h -0.63907 v 0.3806833 h 0.61237 v 0.1464167 h -0.61237 V 9.683341 h 0.65457 v 0.1464167 h -0.82854 z m 1.11449,0 h 0.81304 v 0.1464166 h -0.63907 v 0.3806833 h 0.61237 v 0.1464167 h -0.61237 V 9.683341 h 0.65457 v 0.1464167 h -0.82854 z m 0.9362,0 h 1.08779 v 0.1464166 h -0.45647 v 1.1394661 h -0.17484 V 8.6902916 h -0.45648 z"
         id="path18" /><path
         d="m 290.05159,10.891709 v 0.483175 h 0.21877 q 0.12144,0 0.18775,-0.06287 0.0663,-0.06287 0.0663,-0.179145 0,-0.115411 -0.0663,-0.178284 -0.0663,-0.06287 -0.18775,-0.06287 z m -0.17398,-0.142971 h 0.39275 q 0.21618,0 0.32642,0.09819 0.1111,0.09732 0.1111,0.285943 0,0.190342 -0.1111,0.287666 -0.11024,0.09732 -0.32642,0.09732 h -0.21877 v 0.516764 h -0.17398 z m 1.06368,0 h 0.81304 v 0.146416 h -0.63906 v 0.380683 h 0.61236 v 0.146417 h -0.61236 v 0.46595 h 0.65456 v 0.146416 h -0.82854 z m 1.72427,0.68299 q 0.056,0.01895 0.10852,0.08096 0.0534,0.06201 0.1068,0.170532 l 0.17656,0.3514 h -0.1869 l -0.1645,-0.329868 q -0.0637,-0.129191 -0.12402,-0.171393 -0.0594,-0.0422 -0.16278,-0.0422 h -0.18949 v 0.543464 h -0.17397 v -1.285882 h 0.39274 q 0.22048,0 0.32901,0.09216 0.10852,0.09216 0.10852,0.278192 0,0.121439 -0.0568,0.201538 -0.056,0.0801 -0.16364,0.111104 z m -0.43581,-0.540019 v 0.456476 h 0.21877 q 0.12574,0 0.18948,-0.05771 0.0646,-0.05857 0.0646,-0.171393 0,-0.112827 -0.0646,-0.169672 -0.0637,-0.05771 -0.18948,-0.05771 z m 1.61231,-0.142971 h 0.25924 l 0.32815,0.875054 0.32987,-0.875054 h 0.25924 v 1.285882 h -0.16967 v -1.129131 l -0.33159,0.881945 h -0.17484 l -0.33159,-0.881945 v 1.129131 h -0.16881 z m 1.52187,0 h 0.17398 v 1.285882 h -0.17398 z m 0.52021,0 h 0.23427 l 0.57016,1.075731 v -1.075731 h 0.16881 v 1.285882 h -0.23426 l -0.57017,-1.075732 v 1.075732 h -0.16881 z"
         id="path19" /></g></g></svg>
